<svg xmlns="http://www.w3.org/2000/svg" viewBox="0 0 512 512" id="doctor-male"><path fill="#f9f7f8" d="M64.44 501.999V387.715a80 80 0 0 1 43.484-71.18l80.022-41.052a80 80 0 0 1 36.516-8.82h63.076a80 80 0 0 1 36.516 8.82l80.022 41.052a80 80 0 0 1 43.483 71.18v114.284a10 10 0 0 1-10 10H74.44a10 10 0 0 1-10-10Z"></path><path fill="#a4aed3" d="M187.946 275.483a80 80 0 0 1 36.516-8.82h63.076a80 80 0 0 1 36.516 8.82l-68.054 231Z"></path><path fill="#f9beac" d="M205.139 220.138h101.722v80.945H205.139z"></path><path fill="#e58a7b" d="M205.139 248.263a88.267 88.267 0 0 0 14.663 13.283 63.703 63.703 0 0 0 37.19 11.982h12.838a63.703 63.703 0 0 0 37.031-11.873v-41.517H205.14Z"></path><path fill="#eaeaea" d="M128.12 511.999a3.5 3.5 0 0 1-3.5-3.5v-73.174a3.5 3.5 0 0 1 7 0V508.5a3.5 3.5 0 0 1-3.5 3.5zm255.76 0a3.5 3.5 0 0 1-3.5-3.5v-73.174a3.5 3.5 0 0 1 7 0V508.5a3.5 3.5 0 0 1-3.5 3.5z"></path><path fill="#f96263" d="M232.221 466.499 242 316.451h29l8.779 150.048-23.779 42-23.779-42z"></path><path fill="#d34342" d="m281.456 323.499-19.018 19.018a9.104 9.104 0 0 1-12.876 0l-19.018-19.018L256 301.083Z"></path><path fill="#596381" d="M306.861 266.663 256 301.083l23.689 25.435a15 15 0 0 0 23.627-2.163l14.576-44.85zm-101.722 0L256 301.083l-23.689 25.435a15 15 0 0 1-23.627-2.163l-14.576-44.85z"></path><path fill="#f9beac" d="M336.783 171.915v1.65a88.325 88.325 0 0 1-36.763 71.712 63.705 63.705 0 0 1-37.19 11.982h-12.838a63.705 63.705 0 0 1-37.19-11.982 88.325 88.325 0 0 1-36.763-71.712v-19.633l7-9.555-7-19.57 39.19-46.932 121.554 27.497-7 23.127 7 25.433Z"></path><path fill="#e58a7b" d="M256.412 220.625a36.92 36.92 0 0 1-15.72-3.537 3.5 3.5 0 0 1 2.998-6.325 29.695 29.695 0 0 0 25.442 0 3.5 3.5 0 1 1 2.997 6.325 36.955 36.955 0 0 1-15.606 3.537zm12.703-45.237v6.194a12.701 12.701 0 0 1-12.7 12.7h-.007a12.701 12.701 0 0 1-12.701-12.7v-6.194a2 2 0 0 1 2-2h21.408a2 2 0 0 1 2 2z"></path><path fill="#eaeaea" d="m275.8 511.999 77.765-155.345a5 5 0 0 0-.934-5.775l-15.143-15.143a5 5 0 0 1 1.494-8.1l17.865-7.991a5 5 0 0 0 2.108-7.353l-19.38-28.846-32.714-16.783L255.264 512Z"></path><path fill="#eaeaea" d="m235.903 511.999-77.456-155.34a5 5 0 0 1 .929-5.787l15.136-15.136a5 5 0 0 0-1.494-8.1l-17.412-7.789a5 5 0 0 1-1.877-7.669l25.556-32.252 25.854-13.263L256.736 512Z"></path><path fill="#38424f" d="M192.012 51.835a15.973 15.973 0 0 0-15.973 15.973v86.124h8.094a5.906 5.906 0 0 0 5.906-5.906v-24.635a12.515 12.515 0 0 1 4.882-9.915 52.323 52.323 0 0 0 20.01-35.11l3.24-26.531Z"></path><path fill="#596381" d="M364.61 296.427c10.014 11.279 22.814 30.12 26.938 55.836a106.754 106.754 0 0 1 .264 31.827 3.5 3.5 0 1 0 6.932.976 113.776 113.776 0 0 0-.284-33.911 115.578 115.578 0 0 0-19.217-47.36l-14.79-7.587c.055.072.097.15.158.219Z"></path><circle cx="396.451" cy="399.86" r="22.282" fill="#343c4a"></circle><path fill="#596381" d="M119.54 372.314q.162 0 .326-.014a3.5 3.5 0 0 0 3.163-3.808 103.598 103.598 0 0 1 18.302-69.095l-12.081 6.198a110.513 110.513 0 0 0-13.191 63.542 3.5 3.5 0 0 0 3.481 3.177Z"></path><path fill="#343c4a" d="M107.502 432.643a3.5 3.5 0 0 1-3.44-2.852l-6.051-32.122a27.911 27.911 0 1 1 54.857-10.334l6.052 32.121a3.5 3.5 0 0 1-2.792 4.087l-10.778 2.031a3.5 3.5 0 0 1-1.296-6.879l7.34-1.382-5.405-28.682a20.911 20.911 0 0 0-41.1 7.743l5.404 28.682 7.34-1.383a3.5 3.5 0 0 1 1.296 6.879l-10.78 2.03a3.498 3.498 0 0 1-.647.061zm229.281-383.21A45.933 45.933 0 0 0 290.85 3.498H172.88a5.933 5.933 0 0 0-5.658 7.72l8.848 28.018A84.797 84.797 0 0 0 256.93 98.5h32.787a47.36 47.36 0 0 1 27.985 9.153 12.48 12.48 0 0 1 5.07 10.077v30.297a5.906 5.906 0 0 0 5.907 5.906h8.094v-25.446l.01.013z"></path><path fill="#e58a7b" d="M336.783 167.567v-41.05h5.73a17.66 17.66 0 0 1 17.66 17.66 23.39 23.39 0 0 1-23.39 23.39ZM176.04 167.567a23.39 23.39 0 0 1-23.39-23.39 17.66 17.66 0 0 1 17.66-17.66h5.73v41.05Z"></path><path fill="#343c4a" d="M302.956 133.887a3.489 3.489 0 0 1-1.326-.263 27.445 27.445 0 0 0-11.043-2.038 27.169 27.169 0 0 0-9.662 2.038 3.5 3.5 0 1 1-2.657-6.477 34.207 34.207 0 0 1 26.017 0 3.5 3.5 0 0 1-1.329 6.74zm-11.679 17.707a3.5 3.5 0 0 1-3.5-3.5v-7.433a3.5 3.5 0 0 1 7 0v7.433a3.5 3.5 0 0 1-3.5 3.5zm-58.053-17.707a3.489 3.489 0 0 1-1.326-.263 27.21 27.21 0 0 0-20.705 0 3.5 3.5 0 0 1-2.657-6.477 34.208 34.208 0 0 1 26.017 0 3.5 3.5 0 0 1-1.329 6.74zm-11.68 17.707a3.5 3.5 0 0 1-3.5-3.5v-7.433a3.5 3.5 0 0 1 7 0v7.433a3.5 3.5 0 0 1-3.5 3.5z"></path></svg>