<svg xmlns="http://www.w3.org/2000/svg" viewBox="0 0 512 512" id="doctor-female"><path fill="#343c4a" d="M313.341 313.15 256 327.5l-57.348-14.35a84.749 84.749 0 0 1-61.563-103.096l15.203-59.8v-43.019A103.735 103.735 0 0 1 256.027 3.5a103.735 103.735 0 0 1 103.735 103.735v43.277l15.142 59.537a84.749 84.749 0 0 1-61.563 103.103Z"></path><path fill="#f9f7f8" d="M64.44 501.999V387.715a80 80 0 0 1 43.484-71.18l80.022-41.052a80 80 0 0 1 36.516-8.82h63.076a80 80 0 0 1 36.516 8.82l80.022 41.052a80 80 0 0 1 43.483 71.18v114.284a10 10 0 0 1-10 10H74.44a10 10 0 0 1-10-10Z"></path><path fill="#f96263" d="M187.946 275.483a80 80 0 0 1 36.516-8.82h63.076a80 80 0 0 1 36.516 8.82L255.997 512Z"></path><path fill="#f9beac" d="M205.139 220.138v80.946c3.055 3.198 21.76 22.138 51.657 21.8 28.946-.328 46.898-18.483 50.065-21.8v-80.946Z"></path><path fill="#eaeaea" d="M128.12 511.999a3.5 3.5 0 0 1-3.5-3.5v-73.174a3.5 3.5 0 0 1 7 0V508.5a3.5 3.5 0 0 1-3.5 3.5zm255.76 0a3.5 3.5 0 0 1-3.5-3.5v-73.174a3.5 3.5 0 0 1 7 0V508.5a3.5 3.5 0 0 1-3.5 3.5zm-108.08 0 77.765-155.345a5 5 0 0 0-.934-5.775l-15.143-15.143a5 5 0 0 1 1.494-8.1l17.363-7.767a5 5 0 0 0 1.853-7.7l-26.306-32.665-25.03-12.84-51.598 245.335z"></path><path fill="#eaeaea" d="m237.208 511.999-78.761-155.34a5 5 0 0 1 .929-5.787l15.136-15.136a5 5 0 0 0-1.494-8.1l-17.896-8.005a5 5 0 0 1-2.124-7.329l19.004-28.64 33.137-16.999L256.736 512Z"></path><path fill="#596381" d="M391.548 352.266a106.433 106.433 0 0 1 .264 31.823 3.5 3.5 0 1 0 6.932.978 113.445 113.445 0 0 0-.285-33.915 115.128 115.128 0 0 0-19.288-47.393l-14.903-7.646c11.237 12.634 23.286 31.353 27.28 56.153Z"></path><circle cx="396.451" cy="399.86" r="22.282" fill="#343c4a"></circle><path fill="#596381" d="M119.54 372.314c.11 0 .221-.004.333-.015a3.5 3.5 0 0 0 3.155-3.814 102.287 102.287 0 0 1 1.796-31.091 103.833 103.833 0 0 1 16.952-38.225l-12.25 6.285a108.57 108.57 0 0 0-13.466 63.69 3.5 3.5 0 0 0 3.48 3.17Z"></path><path fill="#343c4a" d="M107.502 432.643a3.5 3.5 0 0 1-3.44-2.852l-6.051-32.122a27.911 27.911 0 1 1 54.857-10.334l6.052 32.121a3.5 3.5 0 0 1-2.792 4.087l-10.778 2.031a3.5 3.5 0 0 1-1.296-6.879l7.34-1.382-5.405-28.682a20.911 20.911 0 0 0-41.1 7.743l5.404 28.682 7.34-1.383a3.5 3.5 0 0 1 1.296 6.879l-10.78 2.03a3.498 3.498 0 0 1-.647.061Z"></path><path fill="#e58a7b" d="M205.139 253.46a88.281 88.281 0 0 0 14.252 12.817 63.707 63.707 0 0 0 37.19 11.982h12.838a63.707 63.707 0 0 0 37.19-11.982c.085-.061.167-.126.252-.187v-45.952H205.14Z"></path><path fill="#f9beac" d="M336.372 171.915v1.649a88.325 88.325 0 0 1-36.763 71.713 63.707 63.707 0 0 1-37.19 11.982h-12.838a63.707 63.707 0 0 1-37.19-11.982 88.326 88.326 0 0 1-36.763-71.713V107.33a1.991 1.991 0 0 1 1.927-1.997c10.084-.316 32.858-2.664 53.874-19.16a89.432 89.432 0 0 0 22.606-26.427 1.993 1.993 0 0 1 3.378-.17 108.064 108.064 0 0 0 28.145 27.76 108.874 108.874 0 0 0 49.03 17.858 1.997 1.997 0 0 1 1.784 1.987Z"></path><path fill="#e58a7b" d="M256.001 220.625a36.92 36.92 0 0 1-15.72-3.537 3.5 3.5 0 0 1 2.998-6.325 29.695 29.695 0 0 0 25.442 0 3.5 3.5 0 0 1 2.997 6.325 36.955 36.955 0 0 1-15.606 3.537zm12.703-44.786v5.743a12.701 12.701 0 0 1-12.7 12.7h-.007a12.701 12.701 0 0 1-12.701-12.7v-5.743a2 2 0 0 1 2-2h21.408a2 2 0 0 1 2 2z"></path><circle cx="256" cy="116.999" r="3.5" fill="#d34342"></circle><path fill="#e58a7b" d="M336.372 172.106v-41.05h5.73a17.66 17.66 0 0 1 17.66 17.66 23.39 23.39 0 0 1-23.39 23.39ZM175.628 172.104a23.39 23.39 0 0 1-23.39-23.39 17.66 17.66 0 0 1 17.66-17.66h5.73v41.05Z"></path><path fill="#343c4a" d="M279.187 136.679a3.5 3.5 0 0 1-1.33-6.74 34.205 34.205 0 0 1 26.017 0 3.5 3.5 0 0 1-2.655 6.477 27.458 27.458 0 0 0-11.043-2.038 27.16 27.16 0 0 0-9.661 2.038 3.488 3.488 0 0 1-1.328.263zm11.68 17.707a3.5 3.5 0 0 1-3.5-3.5v-7.433a3.5 3.5 0 1 1 7 0v7.433a3.5 3.5 0 0 1-3.5 3.5zm-58.054-17.707a3.489 3.489 0 0 1-1.326-.263 27.464 27.464 0 0 0-11.043-2.038 27.154 27.154 0 0 0-9.661 2.038 3.5 3.5 0 0 1-2.659-6.476 34.205 34.205 0 0 1 26.018 0 3.5 3.5 0 0 1-1.329 6.739zm-11.68 17.707a3.5 3.5 0 0 1-3.5-3.5v-7.433a3.5 3.5 0 0 1 7 0v7.433a3.5 3.5 0 0 1-3.5 3.5z"></path></svg>