<svg width="80" height="80" viewBox="0 0 80 80" fill="none" xmlns="http://www.w3.org/2000/svg">
<path fill-rule="evenodd" clip-rule="evenodd" d="M48.312 6.37244C43.3292 8.50723 36.1378 8.50722 31.155 6.37243C27.1065 4.63793 22.5781 4.47709 18.3997 6.2946C9.58024 10.1309 5.6255 21.3431 9.46713 31.4558L9.46476 31.4568L15.7541 47.3071L21.6608 70.5927C22.3185 73.1855 24.6426 75 27.3059 75C30.1662 75 32.6034 72.9137 33.0575 70.0765L35.7368 53.3363C36.0523 51.3647 37.7459 49.9149 39.7336 49.9149C41.7212 49.9149 43.4149 51.3647 43.7304 53.3363L46.4096 70.0765C46.8637 72.9137 49.3009 75 52.1612 75C54.8245 75 57.1486 73.1855 57.8063 70.5927L63.7129 47.3071L70.0023 31.4568L70 31.4558C73.8416 21.3431 69.8869 10.1309 61.0674 6.2946C56.889 4.47707 52.3605 4.63792 48.312 6.37244Z" fill="url(#paint0_linear_1_3)"/>
<path fill-rule="evenodd" clip-rule="evenodd" d="M40.757 7.95338C40.7691 8.73661 40.4763 9.52369 39.8787 10.1213L37.1213 12.8787C35.9497 14.0503 35.9497 15.9498 37.1213 17.1213L39.8787 19.8787C41.0503 21.0503 41.0503 22.9498 39.8787 24.1213L37.1213 26.8787C35.9497 28.0503 35.9497 29.9498 37.1213 31.1213L39.8787 33.8787C41.0503 35.0503 41.0503 36.9498 39.8787 38.1213L37.1213 40.8787C35.9497 42.0503 35.9497 43.9498 37.1213 45.1213L40.0154 48.0154C40.5859 48.586 40.8806 49.3326 40.8936 50.0849C40.5249 49.9741 40.1351 49.9149 39.7334 49.9149C37.7457 49.9149 36.0521 51.3647 35.7366 53.3363L33.0573 70.0765C32.6032 72.9137 30.166 75 27.3057 75C24.6424 75 22.3183 73.1855 21.6606 70.5927L15.7539 47.3071L9.46454 31.4568L9.46691 31.4558C5.62529 21.3431 9.58003 10.1309 18.3995 6.29461C22.5779 4.47709 27.1063 4.63794 31.1548 6.37243C33.9257 7.5596 37.3797 8.08658 40.757 7.95338Z" fill="url(#paint1_linear_1_3)"/>
<defs>
<linearGradient id="paint0_linear_1_3" x1="16.4002" y1="5" x2="54.6669" y2="72.2" gradientUnits="userSpaceOnUse">
<stop stop-color="#EBF4F8"/>
<stop offset="1" stop-color="#D0E0F3"/>
</linearGradient>
<linearGradient id="paint1_linear_1_3" x1="16.4" y1="5.00002" x2="54.6667" y2="72.2" gradientUnits="userSpaceOnUse">
<stop stop-color="#F7F5EF"/>
<stop offset="1" stop-color="#D0A768"/>
</linearGradient>
</defs>
</svg>
