<svg width="80" height="80" viewBox="0 0 80 80" fill="none" xmlns="http://www.w3.org/2000/svg">
<path d="M73.1023 24.981C72.7257 16.0481 65.3742 9 56.4334 9C47.3289 9 39.9055 16.2992 39.752 25.4024L39.1715 59.8314C39.0773 65.4194 43.5813 70 49.1701 70H64.5696C70.2577 70 74.8003 65.2619 74.5607 59.5788L73.1023 24.981Z" fill="url(#paint0_linear_1_34)"/>
<path d="M6.90453 24.8573C7.27848 15.9934 14.5732 9 23.4449 9C32.588 9 40 16.412 40 25.5551L40 60C40 65.5229 35.5229 70 30 70H15.4308C9.74255 70 5.19991 65.2617 5.43968 59.5785L6.90453 24.8573Z" fill="url(#paint1_linear_1_34)"/>
<path fill-rule="evenodd" clip-rule="evenodd" d="M1.93988 35.5837C2.7221 34.4459 4.27855 34.1577 5.41631 34.9399C9.33777 37.6359 22.2402 43.5 40.4675 43.5C58.6966 43.5 70.9393 37.6363 74.5124 34.9908C75.6221 34.1692 77.1876 34.4027 78.0092 35.5124C78.8308 36.6221 78.5973 38.1877 77.4876 39.0093C72.9568 42.3638 59.641 48.5 40.4675 48.5C21.2922 48.5 7.38948 42.3641 2.58367 39.0601C1.4459 38.2779 1.15767 36.7215 1.93988 35.5837Z" fill="url(#paint2_linear_1_34)"/>
<g opacity="0.4">
<path fill-rule="evenodd" clip-rule="evenodd" d="M78.0601 35.5837C77.2779 34.446 75.7215 34.1577 74.5837 34.9399C70.6623 37.636 57.7598 43.5001 39.5325 43.5001C21.3034 43.5001 9.06075 37.6363 5.48765 34.9908C4.37797 34.1692 2.81238 34.4028 1.9908 35.5124C1.16922 36.6221 1.40276 38.1877 2.51243 39.0093C7.04323 42.3638 20.359 48.5001 39.5325 48.5001C58.7078 48.5001 72.6105 42.3641 77.4164 39.0602C78.5541 38.2779 78.8424 36.7215 78.0601 35.5837Z" fill="url(#paint3_radial_1_34)" fill-opacity="0.3"/>
<path fill-rule="evenodd" clip-rule="evenodd" d="M78.0601 35.5837C77.2779 34.446 75.7215 34.1577 74.5837 34.9399C70.6623 37.636 57.7598 43.5001 39.5325 43.5001C21.3034 43.5001 9.06075 37.6363 5.48765 34.9908C4.37797 34.1692 2.81238 34.4028 1.9908 35.5124C1.16922 36.6221 1.40276 38.1877 2.51243 39.0093C7.04323 42.3638 20.359 48.5001 39.5325 48.5001C58.7078 48.5001 72.6105 42.3641 77.4164 39.0602C78.5541 38.2779 78.8424 36.7215 78.0601 35.5837Z" fill="url(#paint4_radial_1_34)" fill-opacity="0.3"/>
</g>
<g opacity="0.4">
<path fill-rule="evenodd" clip-rule="evenodd" d="M1.93998 35.5837C2.72219 34.446 4.27864 34.1577 5.4164 34.9399C9.33787 37.636 22.2403 43.5001 40.4676 43.5001C58.6967 43.5001 70.9394 37.6363 74.5125 34.9908C75.6221 34.1692 77.1877 34.4028 78.0093 35.5124C78.8309 36.6221 78.5974 38.1877 77.4877 39.0093C72.9569 42.3638 59.6411 48.5001 40.4676 48.5001C21.2923 48.5001 7.38957 42.3641 2.58376 39.0602C1.446 38.2779 1.15777 36.7215 1.93998 35.5837Z" fill="url(#paint5_radial_1_34)" fill-opacity="0.3"/>
<path fill-rule="evenodd" clip-rule="evenodd" d="M1.93998 35.5837C2.72219 34.446 4.27864 34.1577 5.4164 34.9399C9.33787 37.636 22.2403 43.5001 40.4676 43.5001C58.6967 43.5001 70.9394 37.6363 74.5125 34.9908C75.6221 34.1692 77.1877 34.4028 78.0093 35.5124C78.8309 36.6221 78.5974 38.1877 77.4877 39.0093C72.9569 42.3638 59.6411 48.5001 40.4676 48.5001C21.2923 48.5001 7.38957 42.3641 2.58376 39.0602C1.446 38.2779 1.15777 36.7215 1.93998 35.5837Z" fill="url(#paint6_radial_1_34)" fill-opacity="0.3"/>
</g>
<g filter="url(#filter0_d_1_34)">
<path d="M13.9869 42.0518C13.9869 38.1858 17.1209 35.0518 20.9869 35.0518H25.6882C29.5542 35.0518 32.6882 38.1858 32.6882 42.0518V46.7531C32.6882 50.6191 29.5542 53.7531 25.6882 53.7531H20.9869C17.1209 53.7531 13.9869 50.6191 13.9869 46.7531V42.0518Z" fill="url(#paint7_linear_1_34)"/>
<path d="M14.9869 42.0518C14.9869 38.7381 17.6732 36.0518 20.9869 36.0518H25.6882C29.0019 36.0518 31.6882 38.7381 31.6882 42.0518V46.7531C31.6882 50.0668 29.0019 52.7531 25.6882 52.7531H20.9869C17.6732 52.7531 14.9869 50.0668 14.9869 46.7531V42.0518Z" stroke="url(#paint8_radial_1_34)" stroke-width="2"/>
</g>
<g filter="url(#filter1_d_1_34)">
<path d="M47.9869 42.0518C47.9869 38.1858 51.1209 35.0518 54.9869 35.0518H59.6882C63.5542 35.0518 66.6882 38.1858 66.6882 42.0518V46.7531C66.6882 50.6191 63.5542 53.7531 59.6882 53.7531H54.9869C51.1209 53.7531 47.9869 50.6191 47.9869 46.7531V42.0518Z" fill="url(#paint9_linear_1_34)"/>
<path d="M48.9869 42.0518C48.9869 38.7381 51.6732 36.0518 54.9869 36.0518H59.6882C63.0019 36.0518 65.6882 38.7381 65.6882 42.0518V46.7531C65.6882 50.0668 63.0019 52.7531 59.6882 52.7531H54.9869C51.6732 52.7531 48.9869 50.0668 48.9869 46.7531V42.0518Z" stroke="url(#paint10_radial_1_34)" stroke-width="2"/>
</g>
<defs>
<filter id="filter0_d_1_34" x="5.98694" y="31.0518" width="34.7013" height="34.7013" filterUnits="userSpaceOnUse" color-interpolation-filters="sRGB">
<feFlood flood-opacity="0" result="BackgroundImageFix"/>
<feColorMatrix in="SourceAlpha" type="matrix" values="0 0 0 0 0 0 0 0 0 0 0 0 0 0 0 0 0 0 127 0" result="hardAlpha"/>
<feOffset dy="4"/>
<feGaussianBlur stdDeviation="4"/>
<feComposite in2="hardAlpha" operator="out"/>
<feColorMatrix type="matrix" values="0 0 0 0 0.148194 0 0 0 0 0.235583 0 0 0 0 0.585139 0 0 0 0.13 0"/>
<feBlend mode="normal" in2="BackgroundImageFix" result="effect1_dropShadow_1_34"/>
<feBlend mode="normal" in="SourceGraphic" in2="effect1_dropShadow_1_34" result="shape"/>
</filter>
<filter id="filter1_d_1_34" x="39.9869" y="31.0518" width="34.7013" height="34.7013" filterUnits="userSpaceOnUse" color-interpolation-filters="sRGB">
<feFlood flood-opacity="0" result="BackgroundImageFix"/>
<feColorMatrix in="SourceAlpha" type="matrix" values="0 0 0 0 0 0 0 0 0 0 0 0 0 0 0 0 0 0 127 0" result="hardAlpha"/>
<feOffset dy="4"/>
<feGaussianBlur stdDeviation="4"/>
<feComposite in2="hardAlpha" operator="out"/>
<feColorMatrix type="matrix" values="0 0 0 0 0.148194 0 0 0 0 0.235583 0 0 0 0 0.585139 0 0 0 0.13 0"/>
<feBlend mode="normal" in2="BackgroundImageFix" result="effect1_dropShadow_1_34"/>
<feBlend mode="normal" in="SourceGraphic" in2="effect1_dropShadow_1_34" result="shape"/>
</filter>
<linearGradient id="paint0_linear_1_34" x1="39" y1="28.5" x2="61.2178" y2="48.6577" gradientUnits="userSpaceOnUse">
<stop stop-color="#F0F6F9"/>
<stop offset="1" stop-color="#CDDFF2"/>
</linearGradient>
<linearGradient id="paint1_linear_1_34" x1="3" y1="25.5" x2="31.8718" y2="58.2922" gradientUnits="userSpaceOnUse">
<stop stop-color="#F0F6F9"/>
<stop offset="1" stop-color="#CDDFF2"/>
</linearGradient>
<linearGradient id="paint2_linear_1_34" x1="40" y1="37" x2="39.5" y2="50" gradientUnits="userSpaceOnUse">
<stop stop-color="#E3E7F6"/>
<stop offset="1" stop-color="#C7CCDF"/>
</linearGradient>
<radialGradient id="paint3_radial_1_34" cx="0" cy="0" r="1" gradientUnits="userSpaceOnUse" gradientTransform="translate(56 45.0001) rotate(177.879) scale(13.5093 74.3)">
<stop stop-color="#ADB6DA"/>
<stop offset="1" stop-color="#626D97" stop-opacity="0"/>
</radialGradient>
<radialGradient id="paint4_radial_1_34" cx="0" cy="0" r="1" gradientUnits="userSpaceOnUse" gradientTransform="translate(56 45.0001) rotate(177.879) scale(13.5093 74.3)">
<stop stop-color="#ADB6DA"/>
<stop offset="1" stop-color="#626D97" stop-opacity="0"/>
</radialGradient>
<radialGradient id="paint5_radial_1_34" cx="0" cy="0" r="1" gradientUnits="userSpaceOnUse" gradientTransform="translate(24.0001 45.0001) rotate(2.1211) scale(13.5093 74.3)">
<stop stop-color="#ADB6DA"/>
<stop offset="1" stop-color="#626D97" stop-opacity="0"/>
</radialGradient>
<radialGradient id="paint6_radial_1_34" cx="0" cy="0" r="1" gradientUnits="userSpaceOnUse" gradientTransform="translate(24.0001 45.0001) rotate(2.1211) scale(13.5093 74.3)">
<stop stop-color="#ADB6DA"/>
<stop offset="1" stop-color="#626D97" stop-opacity="0"/>
</radialGradient>
<linearGradient id="paint7_linear_1_34" x1="21.5" y1="35" x2="28.5" y2="54" gradientUnits="userSpaceOnUse">
<stop stop-color="#F2F5FF"/>
<stop offset="1" stop-color="#D6DBF1"/>
</linearGradient>
<radialGradient id="paint8_radial_1_34" cx="0" cy="0" r="1" gradientUnits="userSpaceOnUse" gradientTransform="translate(29.5 22.0001) rotate(126.431) scale(26.1008)">
<stop stop-color="white"/>
<stop offset="1" stop-color="white" stop-opacity="0"/>
</radialGradient>
<linearGradient id="paint9_linear_1_34" x1="55.5" y1="35" x2="62.5" y2="54" gradientUnits="userSpaceOnUse">
<stop stop-color="#F2F5FF"/>
<stop offset="1" stop-color="#D6DBF1"/>
</linearGradient>
<radialGradient id="paint10_radial_1_34" cx="0" cy="0" r="1" gradientUnits="userSpaceOnUse" gradientTransform="translate(63.5 22.0001) rotate(126.431) scale(26.1008)">
<stop stop-color="white"/>
<stop offset="1" stop-color="white" stop-opacity="0"/>
</radialGradient>
</defs>
</svg>
