<svg width="80" height="80" viewBox="0 0 80 80" fill="none" xmlns="http://www.w3.org/2000/svg">
<path fill-rule="evenodd" clip-rule="evenodd" d="M48.312 6.37244C43.3292 8.50723 36.1378 8.50722 31.155 6.37243C27.1065 4.63793 22.5781 4.47709 18.3997 6.2946C9.582 10.1301 5.62708 21.3387 9.46491 31.4498C9.46576 31.4521 9.46572 31.4546 9.46479 31.4568L10.6624 34.061C14.7109 42.8641 17.7625 52.0923 19.7603 61.5735L21.6608 70.5927C22.3185 73.1855 24.6427 75 27.3059 75C30.1662 75 32.6034 72.9137 33.0575 70.0765L35.7368 53.3363C36.0523 51.3647 37.746 49.9149 39.7336 49.9149C41.7213 49.9149 43.4149 51.3647 43.7304 53.3363L46.4096 70.0765C46.8637 72.9137 49.3009 75 52.1613 75C54.8245 75 57.1486 73.1855 57.8063 70.5927L59.7068 61.5735C61.7047 52.0923 64.7562 42.8641 68.8047 34.061L70.0024 31.4568C70.0014 31.4546 70.0014 31.4521 70.0022 31.4498C73.8401 21.3387 69.8852 10.1301 61.0674 6.2946C56.889 4.47707 52.3605 4.63792 48.312 6.37244Z" fill="url(#paint0_linear_23_84)"/>
<mask id="mask0_23_84" style="mask-type:alpha" maskUnits="userSpaceOnUse" x="8" y="5" width="64" height="70">
<path fill-rule="evenodd" clip-rule="evenodd" d="M48.312 6.37244C43.3292 8.50723 36.1378 8.50722 31.155 6.37243C27.1065 4.63793 22.5781 4.47709 18.3997 6.2946C9.582 10.1301 5.62708 21.3387 9.46491 31.4498C9.46576 31.4521 9.46572 31.4546 9.46479 31.4568L10.6624 34.061C14.7109 42.8641 17.7625 52.0923 19.7603 61.5735L21.6608 70.5927C22.3185 73.1855 24.6427 75 27.3059 75C30.1662 75 32.6034 72.9137 33.0575 70.0765L35.7368 53.3363C36.0523 51.3647 37.746 49.9149 39.7336 49.9149C41.7213 49.9149 43.4149 51.3647 43.7304 53.3363L46.4096 70.0765C46.8637 72.9137 49.3009 75 52.1613 75C54.8245 75 57.1486 73.1855 57.8063 70.5927L59.7068 61.5735C61.7047 52.0923 64.7562 42.8641 68.8047 34.061L70.0024 31.4568C70.0014 31.4546 70.0014 31.4521 70.0022 31.4498C73.8401 21.3387 69.8852 10.1301 61.0674 6.2946C56.889 4.47707 52.3605 4.63792 48.312 6.37244Z" fill="url(#paint1_linear_23_84)"/>
</mask>
<g mask="url(#mask0_23_84)">
<path d="M30 13.0615C30 12.5199 29.566 12.0848 29.0326 11.9904C25.9657 11.4472 23.6364 8.76834 23.6364 5.54545V4.45454C23.6364 1.44208 26.0784 2 29.0909 2C30.6777 2 32.1062 2.67755 33.1029 3.75912C34.8972 2.04953 37.326 1 40 1C42.674 1 45.1028 3.04952 46.8971 4.75911C47.8938 3.67754 49.3223 3 50.9091 3C53.9215 3 56.3636 5.44208 56.3636 8.45454V9.54545C56.3636 12.7895 54.0037 15.4823 50.9069 16.0008C50.4065 16.0846 50 16.4926 50 17C50 22.5228 45.5228 27 40 27C34.4772 27 30 22.5228 30 17V13.0615Z" fill="url(#paint2_linear_23_84)"/>
</g>
<defs>
<linearGradient id="paint0_linear_23_84" x1="16.4002" y1="5" x2="54.6669" y2="72.2" gradientUnits="userSpaceOnUse">
<stop stop-color="#F0F6F9"/>
<stop offset="1" stop-color="#CDDFF2"/>
</linearGradient>
<linearGradient id="paint1_linear_23_84" x1="16.4002" y1="5" x2="54.6669" y2="72.2" gradientUnits="userSpaceOnUse">
<stop stop-color="#F0F6F9"/>
<stop offset="1" stop-color="#CDDFF2"/>
</linearGradient>
<linearGradient id="paint2_linear_23_84" x1="53.6364" y1="0.363638" x2="42.926" y2="42.8359" gradientUnits="userSpaceOnUse">
<stop stop-color="#E6F0F8"/>
<stop offset="1" stop-color="#6F93BA"/>
</linearGradient>
</defs>
</svg>
