<svg width="80" height="80" viewBox="0 0 80 80" fill="none" xmlns="http://www.w3.org/2000/svg">
<path d="M26.577 41.281C26.9242 39.3806 28.58 38 30.5118 38H49.4973C51.4239 38 53.0751 39.3769 53.4214 41.272C53.7672 43.1645 53.7443 45.1631 54.4899 46.9365C55.4388 49.1934 57.4787 50.6766 59.4961 51.9609L20.3789 52.0234C22.3724 50.7543 24.4378 48.9655 25.4396 46.7852C26.2064 45.1163 26.2249 43.2081 26.555 41.4014L26.577 41.281Z" fill="url(#paint0_linear_30_189)"/>
<path d="M26.577 41.281C26.9242 39.3806 28.58 38 30.5118 38H49.4973C51.4239 38 53.0751 39.3769 53.4214 41.272C53.7672 43.1645 53.7443 45.1631 54.4899 46.9365C55.4388 49.1934 57.4787 50.6766 59.4961 51.9609L20.3789 52.0234C22.3724 50.7543 24.4378 48.9655 25.4396 46.7852C26.2064 45.1163 26.2249 43.2081 26.555 41.4014L26.577 41.281Z" fill="url(#paint1_linear_30_189)" fill-opacity="0.4"/>
<path d="M26.577 41.281C26.9242 39.3806 28.58 38 30.5118 38H49.4973C51.4239 38 53.0751 39.3769 53.4214 41.272C53.7672 43.1645 53.7443 45.1631 54.4899 46.9365C55.4388 49.1934 57.4787 50.6766 59.4961 51.9609L20.3789 52.0234C22.3724 50.7543 24.4378 48.9655 25.4396 46.7852C26.2064 45.1163 26.2249 43.2081 26.555 41.4014L26.577 41.281Z" fill="url(#paint2_linear_30_189)" fill-opacity="0.05"/>
<path d="M60.8623 55.3393C61.2743 54.0507 60.7362 52.6534 59.5897 52.0033C59.4384 51.9175 59.2717 51.8639 59.103 51.8213L44.4048 48.1117C41.5136 47.382 38.4865 47.382 35.5953 48.1117L20.897 51.8212C20.7283 51.8637 20.5616 51.9173 20.4103 52.0031C19.2638 52.6533 18.7257 54.0505 19.1377 55.3392C20.4562 59.4639 21.0801 62.301 22.1077 67.182L23.3158 72.9207C23.9225 75.3185 26.065 76.9972 28.521 77L28.5272 77L28.5334 77C31.1713 76.997 33.418 75.067 33.8369 72.4429L36.3103 57.1001C36.6016 55.2752 38.1651 53.8606 40.0001 53.8606C41.835 53.8606 43.3985 55.2753 43.6898 57.1001L46.1632 72.4429C46.582 75.0669 48.8288 76.997 51.4667 77L51.4729 77L51.479 77C53.9351 76.9972 56.0776 75.3185 56.6842 72.9207L57.8923 67.182C58.9199 62.301 59.5438 59.464 60.8623 55.3393Z" fill="url(#paint3_linear_30_189)"/>
<path d="M60.8623 55.3393C61.2743 54.0507 60.7362 52.6534 59.5897 52.0033C59.4384 51.9175 59.2717 51.8639 59.103 51.8213L44.4048 48.1117C41.5136 47.382 38.4865 47.382 35.5953 48.1117L20.897 51.8212C20.7283 51.8637 20.5616 51.9173 20.4103 52.0031C19.2638 52.6533 18.7257 54.0505 19.1377 55.3392C20.4562 59.4639 21.0801 62.301 22.1077 67.182L23.3158 72.9207C23.9225 75.3185 26.065 76.9972 28.521 77L28.5272 77L28.5334 77C31.1713 76.997 33.418 75.067 33.8369 72.4429L36.3103 57.1001C36.6016 55.2752 38.1651 53.8606 40.0001 53.8606C41.835 53.8606 43.3985 55.2753 43.6898 57.1001L46.1632 72.4429C46.582 75.0669 48.8288 76.997 51.4667 77L51.4729 77L51.479 77C53.9351 76.9972 56.0776 75.3185 56.6842 72.9207L57.8923 67.182C58.9199 62.301 59.5438 59.464 60.8623 55.3393Z" fill="url(#paint4_radial_30_189)" fill-opacity="0.2"/>
<path d="M32.1603 4.27835C36.7139 6.26681 43.2859 6.26682 47.8395 4.27836C49.7512 3.44358 51.78 3.00012 53.8212 3H53.8229C55.7317 3.00011 57.6513 3.38789 59.4963 4.20586C67.5561 7.77915 71.1702 18.2228 67.6594 27.6423L67.6616 27.6432C67.2637 28.5261 66.8538 29.4129 66.4534 30.3034C65.8649 31.6121 64.4329 32.289 63.1121 31.8823C62.966 31.8373 62.8208 31.7878 62.6719 31.7528L44.5768 27.499C41.5666 26.7914 38.4334 26.7914 35.4232 27.499L17.3277 31.7528C17.1788 31.7878 17.0336 31.8373 16.8874 31.8823C15.5667 32.289 14.1346 31.6121 13.5463 30.3033C13.1461 29.4128 12.7363 28.5261 12.3384 27.6432L12.3406 27.6423C8.82983 18.2228 12.4439 7.77915 20.5037 4.20586C24.3222 2.51293 28.4606 2.66275 32.1603 4.27835Z" fill="url(#paint5_linear_30_189)"/>
<defs>
<linearGradient id="paint0_linear_30_189" x1="40" y1="36.72" x2="40" y2="51.6" gradientUnits="userSpaceOnUse">
<stop stop-color="#AAC8E3"/>
<stop offset="1" stop-color="#C8DBED"/>
</linearGradient>
<linearGradient id="paint1_linear_30_189" x1="23.2619" y1="42.7784" x2="28.2381" y2="42.7784" gradientUnits="userSpaceOnUse">
<stop stop-color="#F1F7FA"/>
<stop offset="1" stop-color="#F0F7FA" stop-opacity="0"/>
</linearGradient>
<linearGradient id="paint2_linear_30_189" x1="40" y1="36.72" x2="40" y2="41.04" gradientUnits="userSpaceOnUse">
<stop stop-color="#065099"/>
<stop offset="1" stop-color="#065099" stop-opacity="0"/>
</linearGradient>
<linearGradient id="paint3_linear_30_189" x1="23.0635" y1="35.349" x2="40.3204" y2="76.8668" gradientUnits="userSpaceOnUse">
<stop stop-color="#E8F2F8"/>
<stop offset="1" stop-color="#CDDFF2"/>
</linearGradient>
<radialGradient id="paint4_radial_30_189" cx="0" cy="0" r="1" gradientUnits="userSpaceOnUse" gradientTransform="translate(34.9647 42.7536) rotate(71.222) scale(15.6418 19.3657)">
<stop stop-color="white"/>
<stop offset="1" stop-color="#EDF5F8" stop-opacity="0"/>
</radialGradient>
<linearGradient id="paint5_linear_30_189" x1="20.9685" y1="7.65726" x2="62.4626" y2="35.4687" gradientUnits="userSpaceOnUse">
<stop stop-color="#F0F6F9"/>
<stop offset="1" stop-color="#CDDFF2"/>
</linearGradient>
</defs>
</svg>
