<svg width="80" height="80" viewBox="0 0 80 80" fill="none" xmlns="http://www.w3.org/2000/svg">
<path d="M22 25H58L56.6439 37.2047C56.2516 40.736 57.9533 44.172 61 46H19C22.0467 44.172 23.7484 40.736 23.3561 37.2047L22 25Z" fill="url(#paint0_linear_1_9)"/>
<path d="M22 25H58L56.6439 37.2047C56.2516 40.736 57.9533 44.172 61 46H19C22.0467 44.172 23.7484 40.736 23.3561 37.2047L22 25Z" fill="url(#paint1_linear_1_9)" fill-opacity="0.4"/>
<path d="M22 25H58L56.6439 37.2047C56.2516 40.736 57.9533 44.172 61 46H19C22.0467 44.172 23.7484 40.736 23.3561 37.2047L22 25Z" fill="url(#paint2_linear_1_9)" fill-opacity="0.05"/>
<path d="M22 25H58L56.6439 37.2047C56.2516 40.736 57.9533 44.172 61 46H19C22.0467 44.172 23.7484 40.736 23.3561 37.2047L22 25Z" fill="url(#paint3_linear_1_9)" fill-opacity="0.2"/>
<path d="M62.7887 49.5977C63.2682 48.1141 62.5694 46.4973 61.1439 45.8659L47.2904 39.7293C42.6479 37.6728 37.3527 37.6728 32.7102 39.7292L18.8566 45.8657C17.431 46.4972 16.7322 48.1139 17.2117 49.5975C18.652 54.0538 19.3335 57.1191 20.456 62.3926L21.7756 68.5927C22.4383 71.1833 24.7786 72.997 27.4614 73C27.4637 73 27.4659 73 27.4682 73C27.4704 73 27.4727 73 27.4749 73C30.3564 72.9968 32.8106 70.9115 33.2681 68.0765L35.9699 51.5C36.2881 49.5284 37.9959 48 40.0003 48C42.0047 48 43.7125 49.5284 44.0307 51.5L46.7324 68.0765C47.19 70.9115 49.6442 72.9968 52.5256 73C52.5279 73 52.5301 73 52.5324 73C52.5346 73 52.5369 73 52.5391 73C55.2219 72.997 57.5622 71.1833 58.2249 68.5927L59.5445 62.3926C60.667 57.1191 61.3485 54.0539 62.7887 49.5977Z" fill="url(#paint4_linear_1_9)"/>
<path d="M62.7887 49.5977C63.2682 48.1141 62.5694 46.4973 61.1439 45.8659L47.2904 39.7293C42.6479 37.6728 37.3527 37.6728 32.7102 39.7292L18.8566 45.8657C17.431 46.4972 16.7322 48.1139 17.2117 49.5975C18.652 54.0538 19.3335 57.1191 20.456 62.3926L21.7756 68.5927C22.4383 71.1833 24.7786 72.997 27.4614 73C27.4637 73 27.4659 73 27.4682 73C27.4704 73 27.4727 73 27.4749 73C30.3564 72.9968 32.8106 70.9115 33.2681 68.0765L35.9699 51.5C36.2881 49.5284 37.9959 48 40.0003 48C42.0047 48 43.7125 49.5284 44.0307 51.5L46.7324 68.0765C47.19 70.9115 49.6442 72.9968 52.5256 73C52.5279 73 52.5301 73 52.5324 73C52.5346 73 52.5369 73 52.5391 73C55.2219 72.997 57.5622 71.1833 58.2249 68.5927L59.5445 62.3926C60.667 57.1191 61.3485 54.0539 62.7887 49.5977Z" fill="url(#paint5_radial_1_9)" fill-opacity="0.2"/>
<path d="M31.3496 8.37243C36.3742 10.5072 43.6261 10.5072 48.6508 8.37244C50.7602 7.47622 52.9989 7.00013 55.2513 7H55.2531C57.3593 7.00012 59.4776 7.41644 61.5134 8.2946C70.4069 12.1309 74.3949 23.3431 70.521 33.4558L70.5234 33.4568C70.0843 34.4046 69.632 35.3567 69.1902 36.3127C68.5052 37.795 66.7842 38.5223 65.2643 37.9253L47.3131 30.873C42.6125 29.0264 37.3875 29.0264 32.687 30.873L14.7357 37.9253C13.2159 38.5223 11.4948 37.795 10.81 36.3126C10.3683 35.3566 9.91616 34.4046 9.4771 33.4568L9.47949 33.4558C5.60558 23.3431 9.59355 12.1309 18.4871 8.2946C22.7006 6.47709 27.2671 6.63793 31.3496 8.37243Z" fill="url(#paint6_linear_1_9)"/>
<defs>
<linearGradient id="paint0_linear_1_9" x1="40" y1="29.5" x2="40" y2="45" gradientUnits="userSpaceOnUse">
<stop stop-color="#AAC8E3"/>
<stop offset="1" stop-color="#C8DBED"/>
</linearGradient>
<linearGradient id="paint1_linear_1_9" x1="21.5" y1="35.8108" x2="27" y2="35.8108" gradientUnits="userSpaceOnUse">
<stop stop-color="#F1F7FA"/>
<stop offset="1" stop-color="#F0F7FA" stop-opacity="0"/>
</linearGradient>
<linearGradient id="paint2_linear_1_9" x1="40" y1="29.5" x2="40" y2="34" gradientUnits="userSpaceOnUse">
<stop stop-color="#065099"/>
<stop offset="1" stop-color="#065099" stop-opacity="0"/>
</linearGradient>
<linearGradient id="paint3_linear_1_9" x1="40" y1="25" x2="40" y2="36" gradientUnits="userSpaceOnUse">
<stop stop-color="#23578B"/>
<stop offset="1" stop-color="#23578B" stop-opacity="0"/>
</linearGradient>
<linearGradient id="paint4_linear_1_9" x1="21.5" y1="28" x2="40.0002" y2="73" gradientUnits="userSpaceOnUse">
<stop stop-color="#E8F2F8"/>
<stop offset="1" stop-color="#CDDFF2"/>
</linearGradient>
<radialGradient id="paint5_radial_1_9" cx="0" cy="0" r="1" gradientUnits="userSpaceOnUse" gradientTransform="translate(34.5 36) rotate(71.0296) scale(16.9189 21.1294)">
<stop stop-color="white"/>
<stop offset="1" stop-color="#EDF5F8" stop-opacity="0"/>
</radialGradient>
<linearGradient id="paint6_linear_1_9" x1="19" y1="12" x2="64" y2="43" gradientUnits="userSpaceOnUse">
<stop stop-color="#F0F6F9"/>
<stop offset="1" stop-color="#CDDFF2"/>
</linearGradient>
</defs>
</svg>
