<svg width="80" height="80" viewBox="0 0 80 80" fill="none" xmlns="http://www.w3.org/2000/svg">
<path d="M10.0996 15C7.28318 15 5 17.2832 5 20.0996L5 29.1763C5 34.6724 9.467 39.1216 14.963 39.0997L39.3112 39.0027C39.7645 39.0009 40.2123 39.1019 40.621 39.298L68.8926 52.8642C70.2831 53.5314 71.9493 53.165 72.9315 51.9759C74.0846 50.5799 73.9223 48.5207 72.5646 47.3227L48.5476 26.1304C46.3266 24.1706 43.2836 23.4291 40.41 24.1475L17.3793 29.9052C15.051 30.4873 12.7378 28.9022 12.4401 26.5207L11.1117 15.8934C11.0479 15.383 10.614 15 10.0996 15Z" fill="url(#paint0_linear_30_398)"/>
<mask id="mask0_30_398" style="mask-type:alpha" maskUnits="userSpaceOnUse" x="5" y="15" width="69" height="39">
<path d="M10.0996 15C7.28318 15 5 17.2832 5 20.0996L5 29.1763C5 34.6724 9.467 39.1216 14.963 39.0997L39.3112 39.0027C39.7645 39.0009 40.2123 39.1019 40.621 39.298L68.8926 52.8642C70.2831 53.5314 71.9493 53.165 72.9315 51.9759C74.0846 50.5799 73.9223 48.5207 72.5646 47.3227L48.5476 26.1304C46.3266 24.1706 43.2836 23.4291 40.41 24.1475L17.3793 29.9052C15.051 30.4873 12.7378 28.9022 12.4401 26.5207L11.1117 15.8934C11.0479 15.383 10.614 15 10.0996 15Z" fill="url(#paint1_linear_30_398)"/>
</mask>
<g mask="url(#mask0_30_398)">
<rect x="34" y="23" width="15" height="20" fill="url(#paint2_linear_30_398)"/>
<rect x="37" y="23" width="5" height="20" fill="url(#paint3_linear_30_398)"/>
<rect x="23.3266" y="43.3063" width="5" height="20" transform="rotate(-165 23.3266 43.3063)" fill="url(#paint4_linear_30_398)"/>
</g>
<path d="M14 10.0996C14 7.28318 16.2832 5 19.0996 5H28.1763C33.6724 5 38.1216 9.467 38.0997 14.963L38.0027 39.3112C38.0009 39.7645 38.1019 40.2123 38.298 40.621L51.8642 68.8926C52.5314 70.2831 52.165 71.9493 50.9759 72.9315C49.5798 74.0846 47.5207 73.9223 46.3227 72.5646L25.1304 48.5476C23.1706 46.3266 22.4291 43.2836 23.1475 40.41L28.9052 17.3793C29.4873 15.051 27.9022 12.7378 25.5207 12.4401L14.8934 11.1117C14.383 11.0479 14 10.614 14 10.0996Z" fill="url(#paint5_linear_30_398)"/>
<mask id="mask1_30_398" style="mask-type:alpha" maskUnits="userSpaceOnUse" x="14" y="5" width="39" height="69">
<path d="M14 10.0996C14 7.28318 16.2832 5 19.0996 5H28.1763C33.6724 5 38.1216 9.467 38.0997 14.963L38.0027 39.3112C38.0009 39.7645 38.1019 40.2123 38.298 40.621L51.8642 68.8926C52.5314 70.2831 52.165 71.9493 50.9759 72.9315C49.5798 74.0846 47.5207 73.9223 46.3227 72.5646L25.1304 48.5476C23.1706 46.3266 22.4291 43.2836 23.1475 40.41L28.9052 17.3793C29.4873 15.051 27.9022 12.7378 25.5207 12.4401L14.8934 11.1117C14.383 11.0479 14 10.614 14 10.0996Z" fill="url(#paint6_linear_30_398)"/>
</mask>
<g mask="url(#mask1_30_398)">
<path d="M22.6503 15L29 15L35.5 60.5L20.8121 53.9417L22.6503 15Z" fill="url(#paint7_linear_30_398)"/>
</g>
<g filter="url(#filter0_d_30_398)">
<path d="M34.1842 35.1309C35.3557 33.9593 35.3557 32.0598 34.1842 30.8882L33.4757 30.1798C32.3042 29.0082 30.4047 29.0082 29.2331 30.1798L28.1798 31.2331C27.0082 32.4047 27.0082 34.3042 28.1798 35.4758L28.8882 36.1842C30.0598 37.3558 31.9593 37.3558 33.1308 36.1842L34.1842 35.1309Z" fill="url(#paint8_linear_30_398)"/>
</g>
<path d="M33.0462 33.8025C33.4367 33.412 33.4367 32.7789 33.0462 32.3883L31.9757 31.3178C31.5851 30.9273 30.952 30.9273 30.5614 31.3178L29.3178 32.5614C28.9273 32.9519 28.9273 33.5851 29.3178 33.9756L30.3883 35.0462C30.7789 35.4367 31.412 35.4367 31.8026 35.0462L33.0462 33.8025Z" fill="url(#paint9_linear_30_398)"/>
<defs>
<filter id="filter0_d_30_398" x="24.3011" y="27.3011" width="15.7618" height="15.7618" filterUnits="userSpaceOnUse" color-interpolation-filters="sRGB">
<feFlood flood-opacity="0" result="BackgroundImageFix"/>
<feColorMatrix in="SourceAlpha" type="matrix" values="0 0 0 0 0 0 0 0 0 0 0 0 0 0 0 0 0 0 127 0" result="hardAlpha"/>
<feOffset dx="1" dy="2"/>
<feGaussianBlur stdDeviation="2"/>
<feComposite in2="hardAlpha" operator="out"/>
<feColorMatrix type="matrix" values="0 0 0 0 0.0684722 0 0 0 0 0.0823278 0 0 0 0 0.414861 0 0 0 0.15 0"/>
<feBlend mode="normal" in2="BackgroundImageFix" result="effect1_dropShadow_30_398"/>
<feBlend mode="normal" in="SourceGraphic" in2="effect1_dropShadow_30_398" result="shape"/>
</filter>
<linearGradient id="paint0_linear_30_398" x1="5" y1="22" x2="75" y2="42" gradientUnits="userSpaceOnUse">
<stop stop-color="#DFE3F3"/>
<stop offset="1" stop-color="#CCD0E3"/>
</linearGradient>
<linearGradient id="paint1_linear_30_398" x1="5" y1="22" x2="75" y2="42" gradientUnits="userSpaceOnUse">
<stop stop-color="#DFE3F3"/>
<stop offset="1" stop-color="#CCD0E3"/>
</linearGradient>
<linearGradient id="paint2_linear_30_398" x1="29.7143" y1="31" x2="41.5" y2="31" gradientUnits="userSpaceOnUse">
<stop stop-color="#9099C4"/>
<stop offset="1" stop-color="#9099C4" stop-opacity="0"/>
</linearGradient>
<linearGradient id="paint3_linear_30_398" x1="35.5714" y1="31" x2="39.5" y2="31" gradientUnits="userSpaceOnUse">
<stop stop-color="#9099C4"/>
<stop offset="1" stop-color="#9099C4" stop-opacity="0"/>
</linearGradient>
<linearGradient id="paint4_linear_30_398" x1="21.898" y1="51.3063" x2="25.8266" y2="51.3063" gradientUnits="userSpaceOnUse">
<stop stop-color="#9099C4"/>
<stop offset="1" stop-color="#9099C4" stop-opacity="0"/>
</linearGradient>
<linearGradient id="paint5_linear_30_398" x1="23.5" y1="3.5" x2="41" y2="74" gradientUnits="userSpaceOnUse">
<stop stop-color="#E9ECF7"/>
<stop offset="1" stop-color="#CCD0E3"/>
</linearGradient>
<linearGradient id="paint6_linear_30_398" x1="23.5" y1="3.5" x2="41" y2="74" gradientUnits="userSpaceOnUse">
<stop stop-color="#E9ECF7"/>
<stop offset="1" stop-color="#CCD0E3"/>
</linearGradient>
<linearGradient id="paint7_linear_30_398" x1="15" y1="33" x2="28.5" y2="34" gradientUnits="userSpaceOnUse">
<stop stop-color="white"/>
<stop offset="1" stop-color="white" stop-opacity="0"/>
</linearGradient>
<linearGradient id="paint8_linear_30_398" x1="29.1061" y1="30.4891" x2="33.4257" y2="36.0428" gradientUnits="userSpaceOnUse">
<stop stop-color="#F7F7FB"/>
<stop offset="1" stop-color="#DEE1F0"/>
</linearGradient>
<linearGradient id="paint9_linear_30_398" x1="18" y1="17" x2="32.308" y2="34.6177" gradientUnits="userSpaceOnUse">
<stop stop-color="#C5CAE2"/>
<stop offset="1" stop-color="#D1D5E7"/>
</linearGradient>
</defs>
</svg>
