<svg width="80" height="80" viewBox="0 0 80 80" fill="none" xmlns="http://www.w3.org/2000/svg">
<path d="M22 25H58L56.6439 37.2047C56.2516 40.736 57.9533 44.172 61 46H19C22.0467 44.172 23.7484 40.736 23.3561 37.2047L22 25Z" fill="url(#paint0_linear_5_100)"/>
<path d="M22 25H58L56.6439 37.2047C56.2516 40.736 57.9533 44.172 61 46H19C22.0467 44.172 23.7484 40.736 23.3561 37.2047L22 25Z" fill="url(#paint1_linear_5_100)" fill-opacity="0.4"/>
<path d="M22 25H58L56.6439 37.2047C56.2516 40.736 57.9533 44.172 61 46H19C22.0467 44.172 23.7484 40.736 23.3561 37.2047L22 25Z" fill="url(#paint2_linear_5_100)" fill-opacity="0.05"/>
<path d="M22 25H58L56.6439 37.2047C56.2516 40.736 57.9533 44.172 61 46H19C22.0467 44.172 23.7484 40.736 23.3561 37.2047L22 25Z" fill="url(#paint3_linear_5_100)" fill-opacity="0.2"/>
<path d="M22 25H58L56.6439 37.2047C56.2516 40.736 57.9533 44.172 61 46H19C22.0467 44.172 23.7484 40.736 23.3561 37.2047L22 25Z" fill="url(#paint4_linear_5_100)" fill-opacity="0.3"/>
<path d="M62.7887 49.5977C63.2682 48.1141 62.5694 46.4973 61.1439 45.8659L47.2904 39.7293C42.6479 37.6728 37.3527 37.6728 32.7102 39.7292L18.8566 45.8657C17.431 46.4972 16.7322 48.1139 17.2117 49.5975C18.652 54.0538 19.3335 57.1191 20.456 62.3926L21.7756 68.5927C22.4383 71.1833 24.7786 72.997 27.4614 73C27.4637 73 27.4659 73 27.4682 73C27.4704 73 27.4727 73 27.4749 73C30.3564 72.9968 32.8106 70.9115 33.2681 68.0765L35.9699 51.5C36.2881 49.5284 37.9959 48 40.0003 48C42.0047 48 43.7125 49.5284 44.0307 51.5L46.7324 68.0765C47.19 70.9115 49.6442 72.9968 52.5256 73C52.5279 73 52.5301 73 52.5324 73C52.5346 73 52.5369 73 52.5391 73C55.2219 72.997 57.5622 71.1833 58.2249 68.5927L59.5445 62.3926C60.667 57.1191 61.3485 54.0539 62.7887 49.5977Z" fill="url(#paint5_linear_5_100)"/>
<path d="M62.7887 49.5977C63.2682 48.1141 62.5694 46.4973 61.1439 45.8659L47.2904 39.7293C42.6479 37.6728 37.3527 37.6728 32.7102 39.7292L18.8566 45.8657C17.431 46.4972 16.7322 48.1139 17.2117 49.5975C18.652 54.0538 19.3335 57.1191 20.456 62.3926L21.7756 68.5927C22.4383 71.1833 24.7786 72.997 27.4614 73C27.4637 73 27.4659 73 27.4682 73C27.4704 73 27.4727 73 27.4749 73C30.3564 72.9968 32.8106 70.9115 33.2681 68.0765L35.9699 51.5C36.2881 49.5284 37.9959 48 40.0003 48C42.0047 48 43.7125 49.5284 44.0307 51.5L46.7324 68.0765C47.19 70.9115 49.6442 72.9968 52.5256 73C52.5279 73 52.5301 73 52.5324 73C52.5346 73 52.5369 73 52.5391 73C55.2219 72.997 57.5622 71.1833 58.2249 68.5927L59.5445 62.3926C60.667 57.1191 61.3485 54.0539 62.7887 49.5977Z" fill="url(#paint6_radial_5_100)" fill-opacity="0.2"/>
<path d="M31.3496 8.37243C36.3742 10.5072 43.6261 10.5072 48.6508 8.37244C50.7602 7.47622 52.9989 7.00013 55.2513 7H55.2531C57.3593 7.00012 59.4776 7.41644 61.5134 8.2946C70.4069 12.1309 74.3949 23.3431 70.521 33.4558L70.5234 33.4568C70.0843 34.4046 69.632 35.3567 69.1902 36.3127C68.5052 37.795 66.7842 38.5223 65.2643 37.9253L47.3131 30.873C42.6125 29.0264 37.3875 29.0264 32.687 30.873L14.7357 37.9253C13.2159 38.5223 11.4948 37.795 10.81 36.3126C10.3683 35.3566 9.91616 34.4046 9.4771 33.4568L9.47949 33.4558C5.60558 23.3431 9.59355 12.1309 18.4871 8.2946C22.7006 6.47709 27.2671 6.63793 31.3496 8.37243Z" fill="url(#paint7_linear_5_100)"/>
<g filter="url(#filter0_f_5_100)">
<path d="M17.5697 7.46721L17.2647 6.01176C17.1411 5.42222 16.6212 5 16.0189 5C15.3996 5 14.8703 5.44566 14.7647 6.05584L14.5619 7.22786C14.0679 10.0826 11.8664 12.3381 9.02435 12.901L6.9612 13.3096C6.40254 13.4203 6 13.9104 6 14.4799C6 15.0672 6.42753 15.5672 7.00776 15.6584L8.74805 15.9319C11.7292 16.4004 14.0746 18.7267 14.5674 21.704L14.7725 22.9436C14.8734 23.5531 15.4004 24 16.0181 24C16.6197 24 17.1377 23.5755 17.256 22.9857L17.5594 21.4722C18.1329 18.6116 20.4204 16.4067 23.3001 15.9387L24.9924 15.6637C25.5733 15.5693 26 15.0677 26 14.4792C26 13.9092 25.5991 13.4179 25.0407 13.3035L23.0165 12.889C20.2824 12.3291 18.1422 10.1987 17.5697 7.46721Z" fill="url(#paint8_linear_5_100)"/>
</g>
<path d="M17.0376 9.22877L16.5621 5.48813C16.5266 5.20912 16.2892 5 16.0079 5C15.7199 5 15.4792 5.21896 15.4519 5.50566L15.0984 9.22033C14.8904 11.4062 13.1853 13.1507 11.0047 13.4084L6.4876 13.9424C6.20951 13.9752 6 14.211 6 14.491C6 14.7786 6.22066 15.0181 6.50731 15.0416L10.7678 15.3909C13.0655 15.5792 14.8952 17.3918 15.1053 19.6875L15.4537 23.4945C15.4799 23.7808 15.7201 24 16.0076 24C16.2887 24 16.5256 23.7903 16.5598 23.5113L17.028 19.6816C17.3104 17.3716 19.1741 15.5764 21.493 15.3806L25.4925 15.0429C25.7795 15.0186 26 14.7787 26 14.4907C26 14.2106 25.7909 13.9745 25.5129 13.9407L21.2531 13.4221C19.0536 13.1543 17.317 11.4268 17.0376 9.22877Z" fill="url(#paint9_linear_5_100)"/>
<defs>
<filter id="filter0_f_5_100" x="2" y="1" width="28" height="27" filterUnits="userSpaceOnUse" color-interpolation-filters="sRGB">
<feFlood flood-opacity="0" result="BackgroundImageFix"/>
<feBlend mode="normal" in="SourceGraphic" in2="BackgroundImageFix" result="shape"/>
<feGaussianBlur stdDeviation="2" result="effect1_foregroundBlur_5_100"/>
</filter>
<linearGradient id="paint0_linear_5_100" x1="40" y1="29.5" x2="40" y2="45" gradientUnits="userSpaceOnUse">
<stop stop-color="#AAC8E3"/>
<stop offset="1" stop-color="#C8DBED"/>
</linearGradient>
<linearGradient id="paint1_linear_5_100" x1="21.5" y1="35.8108" x2="27" y2="35.8108" gradientUnits="userSpaceOnUse">
<stop stop-color="#F1F7FA"/>
<stop offset="1" stop-color="#F0F7FA" stop-opacity="0"/>
</linearGradient>
<linearGradient id="paint2_linear_5_100" x1="40" y1="29.5" x2="40" y2="34" gradientUnits="userSpaceOnUse">
<stop stop-color="#065099"/>
<stop offset="1" stop-color="#065099" stop-opacity="0"/>
</linearGradient>
<linearGradient id="paint3_linear_5_100" x1="40" y1="25" x2="40" y2="36" gradientUnits="userSpaceOnUse">
<stop stop-color="#23578B"/>
<stop offset="1" stop-color="#23578B" stop-opacity="0"/>
</linearGradient>
<linearGradient id="paint4_linear_5_100" x1="40" y1="28.5" x2="40" y2="40" gradientUnits="userSpaceOnUse">
<stop stop-color="#E8C200"/>
<stop offset="1" stop-color="#FFE457" stop-opacity="0"/>
</linearGradient>
<linearGradient id="paint5_linear_5_100" x1="21.5" y1="28" x2="40.0002" y2="73" gradientUnits="userSpaceOnUse">
<stop stop-color="#E8F2F8"/>
<stop offset="1" stop-color="#CDDFF2"/>
</linearGradient>
<radialGradient id="paint6_radial_5_100" cx="0" cy="0" r="1" gradientUnits="userSpaceOnUse" gradientTransform="translate(34.5 36) rotate(71.0296) scale(16.9189 21.1294)">
<stop stop-color="white"/>
<stop offset="1" stop-color="#EDF5F8" stop-opacity="0"/>
</radialGradient>
<linearGradient id="paint7_linear_5_100" x1="19" y1="12" x2="79.215" y2="49.0161" gradientUnits="userSpaceOnUse">
<stop stop-color="#F9EE93"/>
<stop offset="1" stop-color="#E4BB29"/>
</linearGradient>
<linearGradient id="paint8_linear_5_100" x1="16" y1="5" x2="16" y2="24" gradientUnits="userSpaceOnUse">
<stop stop-color="white"/>
<stop offset="1" stop-color="white"/>
</linearGradient>
<linearGradient id="paint9_linear_5_100" x1="16" y1="5" x2="16" y2="24" gradientUnits="userSpaceOnUse">
<stop stop-color="white"/>
<stop offset="1" stop-color="white"/>
</linearGradient>
</defs>
</svg>
