<svg width="80" height="80" viewBox="0 0 80 80" fill="none" xmlns="http://www.w3.org/2000/svg">
<path fill-rule="evenodd" clip-rule="evenodd" d="M53.9352 15.2975C59.8347 16.6434 74.4457 39.6107 78.7866 46.6205C78.8667 46.7498 78.9046 46.8838 78.9085 47.0134C79.0536 47.301 79.0343 47.6713 78.7919 47.9523C78.3085 48.5129 77.8055 49.106 77.2841 49.7209C72.1336 55.7948 65.1758 64 57.3552 64C54.101 64 51.4293 63.4381 48.7472 62.8741C46.0442 62.3056 43.3308 61.735 40 61.735C36.6692 61.735 33.9558 62.3056 31.2528 62.8741C28.5707 63.4381 25.899 64 22.6448 64C14.8242 64 7.8664 55.7948 2.71592 49.7209C2.19462 49.1062 1.69137 48.5127 1.20808 47.9523C0.965989 47.6716 0.946479 47.3017 1.09102 47.0143C1.09472 46.8843 1.13269 46.7498 1.21302 46.6201C5.55436 39.6099 20.1655 16.6434 26.0649 15.2975C30.0337 14.392 32.2263 15.7215 34.3902 17.0336C36.0252 18.025 37.6439 19.0065 40.0001 19.0065C42.3562 19.0065 43.9749 18.025 45.6099 17.0336C47.7739 15.7215 49.9664 14.392 53.9352 15.2975ZM9.95448 45.5096C15.8377 44.8037 22.9893 44.0678 27.2388 44.0678C31.6856 44.0678 34.8209 44.6945 36.8919 45.4361C38.6488 46.0651 41.3512 46.0652 43.108 45.4361C45.1791 44.6945 48.3144 44.0678 52.7612 44.0678C57.0107 44.0678 64.1625 44.8037 70.0457 45.5097C65.7776 44.0013 60.3382 41.0983 55.1769 38.3437C48.7594 34.9188 42.7718 31.7232 40.0001 31.7232C37.2284 31.7232 31.2408 34.9188 24.8233 38.3438C19.662 41.0983 14.2226 44.0013 9.95448 45.5096Z" fill="url(#paint0_linear_1_58)"/>
<circle cx="6.39557" cy="19.0822" r="2.9776" fill="#7F5940"/>
<defs>
<linearGradient id="paint0_linear_1_58" x1="40.0002" y1="44.0678" x2="40.0002" y2="64" gradientUnits="userSpaceOnUse">
<stop stop-color="#C87E79"/>
<stop offset="1" stop-color="#ECB5B3"/>
</linearGradient>
</defs>
</svg>
