<svg width="80" height="80" viewBox="0 0 80 80" fill="none" xmlns="http://www.w3.org/2000/svg">
<g opacity="0.9">
<path d="M26.4516 18C21.5484 18 6.77419 27.6702 0 33.7959H8.69565C17.4761 33.7959 32.1782 31.7012 40.3226 31.7012C49.454 31.7012 65.4578 33.7959 73.913 33.7959H80C72.9032 27.6702 57.6129 18 53.2258 18C47.7419 18 43.871 22.9956 40.3226 22.9956C36.7742 22.9956 32.5806 18 26.4516 18Z" fill="url(#paint0_linear_1_50)"/>
<path d="M6.08696 33.7959H0C4.25356 42.8639 17.8685 61 40.4348 61C63.0011 61 75.5226 42.8639 80 33.7959H74.7826C74.7826 33.7959 59.9116 44.3265 40.4348 44.3265C20.9579 44.3265 6.08696 33.7959 6.08696 33.7959Z" fill="url(#paint1_linear_1_50)"/>
</g>
<defs>
<linearGradient id="paint0_linear_1_50" x1="40" y1="18" x2="40" y2="33.7959" gradientUnits="userSpaceOnUse">
<stop stop-color="#C97F7A"/>
<stop offset="1" stop-color="#E0A29F"/>
</linearGradient>
<linearGradient id="paint1_linear_1_50" x1="40" y1="33.7959" x2="40" y2="61" gradientUnits="userSpaceOnUse">
<stop stop-color="#C97F7A"/>
<stop offset="1" stop-color="#E0A29F"/>
</linearGradient>
</defs>
</svg>
