<svg xmlns="http://www.w3.org/2000/svg" xmlns:xlink="http://www.w3.org/1999/xlink" x="0px" y="0px" viewBox="0 0 120 120" style="enable-background:new 0 0 120 120;" xml:space="preserve" width="120"  height="120" ><path d="M108,23C106.6,12.8,99.3,4.5,89.4,2v0c-9.4-2.4-15.3-0.4-22.2,3c-5.2,2.5-11.3,2.4-16.5-0.2C45.3,2,38.9,0.1,29.6,2.3 C15.9,5.6,11.2,20.2,11.2,34.2c0,32.6,16.1,76.4,33,84.3c3,1.4,5.4-0.2,5.4-3.5V89.6c0-5.4,4-10.3,9.4-10.8 c6.2-0.6,11.4,4.3,11.4,10.3v25.5c0,3.7,2.6,5.3,5.9,3.6C95,108.7,112.6,55.5,108,23z M30.2,27.3c-1,1.6-4.4,4.6-6.8,2.2 c-1.5-1.5-1.7-3.2-1.5-4.6c0.4-2.4,2.5-4.4,4.9-4.4C30.3,20.4,32.2,24.1,30.2,27.3z M46.4,42.1c-1.7,2.8-7.7,8.2-12,3.9 c-2.7-2.7-3.1-5.7-2.7-8.2c0.6-4,3.9-7.3,8-7.7v0C46.3,29.4,50.1,36.1,46.4,42.1z M86.7,15c-4.5,1.7-6.9,1.7-8.6,1.8 c-1.9,0-3,0-5.2,2.3c-5,5.2-12.4,4.6-17.2,1.9c-4.1-2.3-5.4-1.7-7.7-0.7c-0.8,0.4-1.8,0.8-3,1.2c-2.7,0.8-7.4,1-9.5-4.3 c-0.9-2.2-3-2.8-4.6-3.3c-0.6-0.2-1.1-0.4-1.5-0.6c-3.2-2-1-7.5,2.7-8.1h0C38.8,4,44.4,6.5,49.5,8.7l0,0c0.5,0.2,1,0.4,1.5,0.7 c7.5,3.3,19.1-1,23.4-3.9c2.5-1.7,6.4-1.2,9.1-0.6c2.7,0.7,5,2.6,5.8,5.3C89.8,12,89.5,14,86.7,15z" fill="#267DE7"></path></svg>