<svg width="80" height="80" viewBox="0 0 80 80" fill="none" xmlns="http://www.w3.org/2000/svg">
<path fill-rule="evenodd" clip-rule="evenodd" d="M48.312 6.37244C43.3292 8.50723 36.1378 8.50722 31.155 6.37243C27.1065 4.63793 22.5781 4.47709 18.3997 6.2946C9.58197 10.1301 5.62705 21.3387 9.46488 31.4498C9.46573 31.4521 9.46569 31.4546 9.46476 31.4568L10.6624 34.061C14.7109 42.8641 17.7625 52.0923 19.7603 61.5735L21.6608 70.5927C22.3185 73.1855 24.6426 75 27.3059 75C30.1662 75 32.6034 72.9137 33.0575 70.0765L35.7368 53.3363C36.0523 51.3647 37.7459 49.9149 39.7336 49.9149C41.7212 49.9149 43.4149 51.3647 43.7304 53.3363L46.4096 70.0765C46.8637 72.9137 49.3009 75 52.1612 75C54.8245 75 57.1486 73.1855 57.8063 70.5927L59.7068 61.5735C61.7046 52.0923 64.7562 42.8641 68.8047 34.061L70.0023 31.4568C70.0014 31.4546 70.0014 31.4521 70.0022 31.4498C73.84 21.3387 69.8851 10.1301 61.0674 6.2946C56.889 4.47707 52.3605 4.63792 48.312 6.37244Z" fill="url(#paint0_linear_6_176)"/>
<g filter="url(#filter0_f_6_176)">
<path d="M20.2491 13.4022L19.7765 11.1475C19.6364 10.4789 19.0467 10 18.3635 10C17.6612 10 17.0607 10.5055 16.941 11.1975L16.6009 13.1629C16.107 16.0176 13.9054 18.2731 11.0634 18.836L8.09019 19.4249C7.45656 19.5504 6.99999 20.1062 6.99999 20.7522C6.99999 21.4183 7.4849 21.9854 8.14301 22.0888L10.7871 22.5044C13.7683 22.9729 16.1137 25.2992 16.6064 28.2765L16.9499 30.3519C17.0643 31.0431 17.662 31.55 18.3626 31.55C19.045 31.55 19.6325 31.0685 19.7666 30.3995L20.2387 28.0447C20.8122 25.1841 23.0997 22.9792 25.9794 22.5112L28.5414 22.0949C29.2002 21.9879 29.6842 21.4189 29.6842 20.7514C29.6842 20.1049 29.2295 19.5477 28.5962 19.418L25.6958 18.824C22.9618 18.2641 20.8215 16.1337 20.2491 13.4022Z" fill="url(#paint1_linear_6_176)"/>
</g>
<path d="M19.5189 14.7963L18.9796 10.5536C18.9394 10.2372 18.6701 10 18.3511 10C18.0245 10 17.7514 10.2483 17.7204 10.5735L17.3195 14.7867C17.0836 17.266 15.1496 19.2446 12.6764 19.5369L7.55303 20.1425C7.23762 20.1798 6.99999 20.4472 6.99999 20.7648C6.99999 21.091 7.25027 21.3626 7.57539 21.3893L12.4077 21.7854C15.0137 21.9991 17.0891 24.0549 17.3274 26.6587L17.7225 30.9766C17.7522 31.3014 18.0246 31.55 18.3508 31.55C18.6696 31.55 18.9383 31.3121 18.977 30.9957L19.508 26.652C19.8284 24.032 21.9422 21.9958 24.5723 21.7738L29.1086 21.3907C29.4341 21.3632 29.6842 21.0911 29.6842 20.7645C29.6842 20.4468 29.4471 20.179 29.1317 20.1406L24.3002 19.5524C21.8055 19.2487 19.8358 17.2894 19.5189 14.7963Z" fill="url(#paint2_linear_6_176)"/>
<g filter="url(#filter1_f_6_176)">
<path d="M59.2993 42.4873L59.1388 41.7215C59.0506 41.3011 58.6799 41 58.2503 41C57.8087 41 57.4312 41.3178 57.3559 41.753L57.2632 42.2883C56.8796 44.5053 55.17 46.2568 52.963 46.6939L51.7908 46.9261C51.3923 47.005 51.1053 47.3545 51.1053 47.7606C51.1053 48.1795 51.4102 48.5361 51.824 48.6011L52.7322 48.7438C55.057 49.1092 56.8859 50.9233 57.2702 53.245L57.3615 53.7966C57.4334 54.2313 57.8092 54.55 58.2498 54.55C58.6788 54.55 59.0482 54.2473 59.1326 53.8266L59.3321 52.8313C59.7512 50.7407 61.423 49.1293 63.5276 48.7873L64.6499 48.6049C65.0641 48.5376 65.3684 48.1798 65.3684 47.7602C65.3684 47.3537 65.0825 47.0033 64.6843 46.9217L63.5131 46.6819C61.3979 46.2487 59.7421 44.6005 59.2993 42.4873Z" fill="url(#paint3_linear_6_176)"/>
</g>
<path d="M58.9768 44.0158L58.6377 41.3481C58.6124 41.1491 58.4431 41 58.2425 41C58.0371 41 57.8654 41.1562 57.846 41.3606L57.5939 44.0098C57.4455 45.5687 56.2295 46.8127 54.6744 46.9965L51.453 47.3773C51.2547 47.4008 51.1053 47.5689 51.1053 47.7686C51.1053 47.9737 51.2626 48.1445 51.4671 48.1612L54.5055 48.4103C56.1441 48.5447 57.449 49.8373 57.5988 51.4745L57.8473 54.1895C57.866 54.3937 58.0372 54.55 58.2423 54.55C58.4428 54.55 58.6117 54.4004 58.636 54.2015L58.97 51.4703C59.1714 49.8229 60.5005 48.5426 62.1542 48.403L65.0065 48.1621C65.2111 48.1449 65.3684 47.9737 65.3684 47.7684C65.3684 47.5686 65.2193 47.4003 65.021 47.3761L61.9831 47.0063C60.4145 46.8153 59.1761 45.5833 58.9768 44.0158Z" fill="url(#paint4_linear_6_176)"/>
<defs>
<filter id="filter0_f_6_176" x="3" y="6" width="30.6842" height="29.55" filterUnits="userSpaceOnUse" color-interpolation-filters="sRGB">
<feFlood flood-opacity="0" result="BackgroundImageFix"/>
<feBlend mode="normal" in="SourceGraphic" in2="BackgroundImageFix" result="shape"/>
<feGaussianBlur stdDeviation="2" result="effect1_foregroundBlur_6_176"/>
</filter>
<filter id="filter1_f_6_176" x="47.1053" y="37" width="22.2632" height="21.55" filterUnits="userSpaceOnUse" color-interpolation-filters="sRGB">
<feFlood flood-opacity="0" result="BackgroundImageFix"/>
<feBlend mode="normal" in="SourceGraphic" in2="BackgroundImageFix" result="shape"/>
<feGaussianBlur stdDeviation="2" result="effect1_foregroundBlur_6_176"/>
</filter>
<linearGradient id="paint0_linear_6_176" x1="16.4002" y1="5" x2="54.6669" y2="72.2" gradientUnits="userSpaceOnUse">
<stop stop-color="#F0F6F9"/>
<stop offset="1" stop-color="#CDDFF2"/>
</linearGradient>
<linearGradient id="paint1_linear_6_176" x1="18.3421" y1="10" x2="18.3421" y2="31.55" gradientUnits="userSpaceOnUse">
<stop stop-color="white"/>
<stop offset="1" stop-color="white"/>
</linearGradient>
<linearGradient id="paint2_linear_6_176" x1="18.3421" y1="10" x2="18.3421" y2="31.55" gradientUnits="userSpaceOnUse">
<stop stop-color="white"/>
<stop offset="1" stop-color="white"/>
</linearGradient>
<linearGradient id="paint3_linear_6_176" x1="58.2368" y1="41" x2="58.2368" y2="54.55" gradientUnits="userSpaceOnUse">
<stop stop-color="white"/>
<stop offset="1" stop-color="white"/>
</linearGradient>
<linearGradient id="paint4_linear_6_176" x1="58.2368" y1="41" x2="58.2368" y2="54.55" gradientUnits="userSpaceOnUse">
<stop stop-color="white"/>
<stop offset="1" stop-color="white"/>
</linearGradient>
</defs>
</svg>
