<svg width="80" height="80" viewBox="0 0 80 80" fill="none" xmlns="http://www.w3.org/2000/svg">
<path fill-rule="evenodd" clip-rule="evenodd" d="M48.312 6.37244C43.3292 8.50723 36.1378 8.50722 31.155 6.37243C27.1065 4.63793 22.5781 4.47709 18.3997 6.2946C9.582 10.1301 5.62708 21.3387 9.46491 31.4498C9.46576 31.4521 9.46572 31.4546 9.46479 31.4568L10.6624 34.061C14.7109 42.8641 17.7625 52.0923 19.7603 61.5735L21.6608 70.5927C22.3185 73.1855 24.6427 75 27.3059 75C30.1662 75 32.6034 72.9137 33.0575 70.0765L35.7368 53.3363C36.0523 51.3647 37.746 49.9149 39.7336 49.9149C41.7213 49.9149 43.4149 51.3647 43.7304 53.3363L46.4096 70.0765C46.8637 72.9137 49.3009 75 52.1613 75C54.8245 75 57.1486 73.1855 57.8063 70.5927L59.7068 61.5735C61.7047 52.0923 64.7562 42.8641 68.8047 34.061L70.0024 31.4568C70.0014 31.4546 70.0014 31.4521 70.0022 31.4498C73.8401 21.3387 69.8852 10.1301 61.0674 6.2946C56.889 4.47707 52.3605 4.63792 48.312 6.37244Z" fill="url(#paint0_linear_5_113)"/>
<defs>
<linearGradient id="paint0_linear_5_113" x1="16.4002" y1="5" x2="54.6669" y2="72.2" gradientUnits="userSpaceOnUse">
<stop stop-color="#F0F6F9"/>
<stop offset="1" stop-color="#CDDFF2"/>
</linearGradient>
</defs>
</svg>
