<svg width="80" height="80" viewBox="0 0 80 80" fill="none" xmlns="http://www.w3.org/2000/svg">
<g clip-path="url(#clip0_301_281)">
<rect width="80" height="80" rx="16" fill="#1B2C3B"/>
<path fill-rule="evenodd" clip-rule="evenodd" d="M47.0285 13.1176C42.946 14.8559 37.0539 14.8559 32.9713 13.1175C29.6543 11.7052 25.9441 11.5742 22.5206 13.0542C15.296 16.1774 12.0556 25.3044 15.2 33.5377C15.2007 33.5395 15.2007 33.5416 15.1999 33.5434L16.1812 35.6639C19.4982 42.8322 21.9985 50.3465 23.6354 58.067L25.1925 65.4112C25.7314 67.5224 27.6356 69 29.8177 69C32.1612 69 34.1581 67.3012 34.5301 64.9909L36.7253 51.3595C36.9839 49.7541 38.3715 48.5736 40 48.5736C41.6286 48.5736 43.0162 49.7541 43.2747 51.3595L45.4699 64.9909C45.8419 67.3012 47.8388 69 50.1823 69C52.3644 69 54.2686 67.5224 54.8075 65.4112L56.3646 58.067C58.0015 50.3465 60.5018 42.8322 63.8188 35.6639L64.8001 33.5434C64.7993 33.5416 64.7993 33.5395 64.8 33.5377C67.9444 25.3044 64.704 16.1774 57.4794 13.0542C54.0559 11.5742 50.3456 11.7052 47.0285 13.1176Z" fill="url(#paint0_linear_301_281)"/>
<path d="M36.7149 44.4294C37.7537 43.9183 38.8797 43.6794 40 43.7126C41.1203 43.6794 42.2463 43.9183 43.2851 44.4294C45.8353 45.6841 47.5705 48.2437 47.858 51.175L48.833 61.1138C48.8732 61.5231 49.1657 61.8663 49.5648 61.9689C50.1839 62.128 50.7779 61.6563 50.7779 61.0183V56.4471C50.7779 51.0129 51.776 45.6292 53.7179 40.5885L57.434 30.9425C59.7629 24.8975 54.5357 18.6485 48.495 20.2561L43.9551 21.4643C42.6569 21.8098 41.3292 21.9915 40 22.0094C38.6708 21.9915 37.3431 21.8098 36.0449 21.4643L31.505 20.2561C25.4643 18.6485 20.2371 24.8975 22.566 30.9425L26.2821 40.5885C28.224 45.6292 29.2221 51.0129 29.2221 56.4471V61.0183C29.2221 61.6563 29.8161 62.128 30.4352 61.9689C30.8343 61.8663 31.1268 61.5231 31.167 61.1138L32.142 51.175C32.4295 48.2437 34.1647 45.6841 36.7149 44.4294Z" fill="url(#paint1_radial_301_281)"/>
<path d="M80 31C80 31 62.0914 37.9277 40 37.9277C17.9086 37.9277 0 31 0 31V68H80V31Z" fill="url(#paint2_linear_301_281)"/>
</g>
<defs>
<linearGradient id="paint0_linear_301_281" x1="40" y1="12" x2="40" y2="69" gradientUnits="userSpaceOnUse">
<stop stop-color="#486982"/>
<stop offset="1" stop-color="#3A556A"/>
</linearGradient>
<radialGradient id="paint1_radial_301_281" cx="0" cy="0" r="1" gradientUnits="userSpaceOnUse" gradientTransform="translate(40 44.2066) rotate(-108.454) scale(25.6575 21.9255)">
<stop stop-color="#375168"/>
<stop offset="1" stop-color="#2C4255"/>
</radialGradient>
<linearGradient id="paint2_linear_301_281" x1="40" y1="31" x2="40" y2="62.1014" gradientUnits="userSpaceOnUse">
<stop stop-color="#466780"/>
<stop offset="1" stop-color="#486881" stop-opacity="0"/>
</linearGradient>
<clipPath id="clip0_301_281">
<rect width="80" height="80" fill="white"/>
</clipPath>
</defs>
</svg>
