<svg width="80" height="80" viewBox="0 0 80 80" fill="none" xmlns="http://www.w3.org/2000/svg">
<path fill-rule="evenodd" clip-rule="evenodd" d="M48.312 6.37244C43.3292 8.50723 36.1378 8.50722 31.155 6.37243C27.1065 4.63793 22.5781 4.47709 18.3997 6.2946C9.58198 10.1301 5.62706 21.3387 9.46489 31.4498C9.46574 31.4521 9.4657 31.4546 9.46477 31.4568L10.6624 34.061C14.7109 42.8641 17.7625 52.0923 19.7603 61.5735L21.6608 70.5927C22.3185 73.1855 24.6426 75 27.3059 75C30.1662 75 32.6034 72.9137 33.0575 70.0765L35.7368 53.3363C36.0523 51.3647 37.7459 49.9149 39.7336 49.9149C41.7213 49.9149 43.4149 51.3647 43.7304 53.3363L46.4096 70.0765C46.8637 72.9137 49.3009 75 52.1612 75C54.8245 75 57.1486 73.1855 57.8063 70.5927L59.7068 61.5735C61.7046 52.0923 64.7562 42.8641 68.8047 34.061L70.0024 31.4568C70.0014 31.4546 70.0014 31.4521 70.0022 31.4498C73.8401 21.3387 69.8851 10.1301 61.0674 6.2946C56.889 4.47707 52.3605 4.63792 48.312 6.37244Z" fill="url(#paint0_linear_301_270)"/>
<mask id="mask0_301_270" style="mask-type:alpha" maskUnits="userSpaceOnUse" x="0" y="19" width="80" height="42">
<rect y="19" width="80" height="42" rx="12" fill="#1B2C3B"/>
</mask>
<g mask="url(#mask0_301_270)">
<rect y="19" width="80" height="42" rx="12" fill="#1B2C3B"/>
<path fill-rule="evenodd" clip-rule="evenodd" d="M48.6505 6.37244C43.6259 8.50723 36.374 8.50722 31.3493 6.37243C27.2669 4.63793 22.7004 4.47709 18.4869 6.2946C9.59504 10.1301 5.60689 21.3387 9.47697 31.4498C9.47783 31.4521 9.47779 31.4546 9.47685 31.4568L10.6846 34.061C14.7671 42.8641 17.8443 52.0923 19.8589 61.5735L21.7754 70.5927C22.4386 73.1855 24.7823 75 27.4679 75C30.3523 75 32.8099 72.9137 33.2678 70.0765L35.9696 53.3363C36.2878 51.3647 37.9957 49.9149 40 49.9149C42.0044 49.9149 43.7122 51.3647 44.0304 53.3363L46.7322 70.0765C47.1901 72.9137 49.6477 75 52.5321 75C55.2177 75 57.5614 73.1855 58.2246 70.5927L60.1411 61.5735C62.1557 52.0923 65.2329 42.8641 69.3154 34.061L70.5231 31.4568C70.5222 31.4546 70.5222 31.4521 70.523 31.4498C74.3931 21.3387 70.4049 10.1301 61.5131 6.2946C57.2996 4.47707 52.7331 4.63792 48.6505 6.37244Z" fill="url(#paint1_linear_301_270)"/>
<path d="M35.9849 44.8275C37.2545 44.1826 38.6307 43.8811 40 43.923C41.3693 43.8811 42.7455 44.1826 44.0151 44.8275C47.132 46.4108 49.2528 49.6409 49.6043 53.3399L50.7959 65.8816C50.845 66.3982 51.2025 66.8313 51.6904 66.9608C52.447 67.1615 53.173 66.5662 53.173 65.7612V59.9928C53.173 53.1353 54.3929 46.3416 56.7664 39.9807L61.3083 27.8084C64.1546 20.1802 57.7658 12.2946 50.3828 14.3232L44.8341 15.8478C43.2473 16.2838 41.6246 16.5131 40 16.5356C38.3754 16.5131 36.7527 16.2838 35.1659 15.8478L29.6172 14.3232C22.2342 12.2946 15.8454 20.1802 18.6917 27.8084L23.2336 39.9807C25.6071 46.3416 26.827 53.1353 26.827 59.9928V65.7612C26.827 66.5662 27.5531 67.1615 28.3096 66.9608C28.7975 66.8313 29.155 66.3982 29.2041 65.8816L30.3957 53.3399C30.7472 49.6409 32.868 46.4108 35.9849 44.8275Z" fill="url(#paint2_radial_301_270)"/>
<path fill-rule="evenodd" clip-rule="evenodd" d="M4 31C4 26.5817 7.58172 23 12 23H15V25H12C8.68629 25 6 27.6863 6 31V34H4V31Z" fill="#617587"/>
<path fill-rule="evenodd" clip-rule="evenodd" d="M4 49C4 53.4183 7.58172 57 12 57H15V55H12C8.68629 55 6 52.3137 6 49V46H4V49Z" fill="#617587"/>
<path fill-rule="evenodd" clip-rule="evenodd" d="M76 31C76 26.5817 72.4183 23 68 23H65V25H68C71.3137 25 74 27.6863 74 31V34H76V31Z" fill="#617587"/>
<path fill-rule="evenodd" clip-rule="evenodd" d="M76 49C76 53.4183 72.4183 57 68 57H65V55H68C71.3137 55 74 52.3137 74 49V46H76V49Z" fill="#617587"/>
</g>
<defs>
<linearGradient id="paint0_linear_301_270" x1="16.4002" y1="5" x2="54.6669" y2="72.2" gradientUnits="userSpaceOnUse">
<stop stop-color="#F0F6F9"/>
<stop offset="1" stop-color="#CDDFF2"/>
</linearGradient>
<linearGradient id="paint1_linear_301_270" x1="40" y1="5" x2="40" y2="75" gradientUnits="userSpaceOnUse">
<stop stop-color="#486982"/>
<stop offset="1" stop-color="#3A556A"/>
</linearGradient>
<radialGradient id="paint2_radial_301_270" cx="0" cy="0" r="1" gradientUnits="userSpaceOnUse" gradientTransform="translate(40 44.5464) rotate(-107.912) scale(32.2767 26.8813)">
<stop stop-color="#375168"/>
<stop offset="1" stop-color="#2C4255"/>
</radialGradient>
</defs>
</svg>
