<svg width="80" height="80" viewBox="0 0 80 80" fill="none" xmlns="http://www.w3.org/2000/svg">
<path fill-rule="evenodd" clip-rule="evenodd" d="M48.312 6.37244C43.3292 8.50723 36.1378 8.50722 31.155 6.37243C27.1065 4.63793 22.5781 4.47709 18.3997 6.2946C9.582 10.1301 5.62708 21.3387 9.46491 31.4498C9.46576 31.4521 9.46572 31.4546 9.46479 31.4568L10.6624 34.061C14.7109 42.8641 17.7625 52.0923 19.7603 61.5735L21.6608 70.5927C22.3185 73.1855 24.6427 75 27.3059 75C30.1662 75 32.6034 72.9137 33.0575 70.0765L35.7368 53.3363C36.0523 51.3647 37.746 49.9149 39.7336 49.9149C41.7213 49.9149 43.4149 51.3647 43.7304 53.3363L46.4096 70.0765C46.8637 72.9137 49.3009 75 52.1613 75C54.8245 75 57.1486 73.1855 57.8063 70.5927L59.7068 61.5735C61.7047 52.0923 64.7562 42.8641 68.8047 34.061L70.0024 31.4568C70.0014 31.4546 70.0014 31.4521 70.0022 31.4498C73.8401 21.3387 69.8852 10.1301 61.0674 6.2946C56.889 4.47707 52.3605 4.63792 48.312 6.37244Z" fill="url(#paint0_linear_6_175)"/>
<path fill-rule="evenodd" clip-rule="evenodd" d="M48.312 6.37244C43.3292 8.50723 36.1378 8.50722 31.155 6.37243C27.1065 4.63793 22.5781 4.47709 18.3997 6.2946C9.582 10.1301 5.62708 21.3387 9.46491 31.4498C9.46576 31.4521 9.46572 31.4546 9.46479 31.4568L10.6624 34.061C14.7109 42.8641 17.7625 52.0923 19.7603 61.5735L21.6608 70.5927C22.3185 73.1855 24.6427 75 27.3059 75C30.1662 75 32.6034 72.9137 33.0575 70.0765L35.7368 53.3363C36.0523 51.3647 37.746 49.9149 39.7336 49.9149C41.7213 49.9149 43.4149 51.3647 43.7304 53.3363L46.4096 70.0765C46.8637 72.9137 49.3009 75 52.1613 75C54.8245 75 57.1486 73.1855 57.8063 70.5927L59.7068 61.5735C61.7047 52.0923 64.7562 42.8641 68.8047 34.061L70.0024 31.4568C70.0014 31.4546 70.0014 31.4521 70.0022 31.4498C73.8401 21.3387 69.8852 10.1301 61.0674 6.2946C56.889 4.47707 52.3605 4.63792 48.312 6.37244Z" fill="url(#paint1_linear_6_175)"/>
<path fill-rule="evenodd" clip-rule="evenodd" d="M30.0876 5.95562C30.629 12.9457 33.8345 24.2436 43.9621 32.9504C50.2878 38.3886 58.1769 41.0794 65.3748 42.2436C66.424 39.4796 67.5678 36.7505 68.8047 34.061L70.0023 31.4568C70.0014 31.4546 70.0013 31.4521 70.0022 31.4498C73.84 21.3387 69.8851 10.1301 61.0674 6.2946C56.889 4.47707 52.3605 4.63792 48.3119 6.37244C43.3292 8.50723 36.1377 8.50722 31.1549 6.37243C30.8026 6.22149 30.4467 6.08246 30.0876 5.95562Z" fill="url(#paint2_linear_6_175)"/>
<path fill-rule="evenodd" clip-rule="evenodd" d="M30.0876 5.95562C30.629 12.9457 33.8345 24.2436 43.9621 32.9504C50.2878 38.3886 58.1769 41.0794 65.3748 42.2436C66.424 39.4796 67.5678 36.7505 68.8047 34.061L70.0023 31.4568C70.0014 31.4546 70.0013 31.4521 70.0022 31.4498C73.84 21.3387 69.8851 10.1301 61.0674 6.2946C56.889 4.47707 52.3605 4.63792 48.3119 6.37244C43.3292 8.50723 36.1377 8.50722 31.1549 6.37243C30.8026 6.22149 30.4467 6.08246 30.0876 5.95562Z" fill="url(#paint3_linear_6_175)" fill-opacity="0.1"/>
<path fill-rule="evenodd" clip-rule="evenodd" d="M30.0876 5.95562C30.629 12.9457 33.8345 24.2436 43.9621 32.9504C50.2878 38.3886 58.1769 41.0794 65.3748 42.2436C66.424 39.4796 67.5678 36.7505 68.8047 34.061L70.0023 31.4568C70.0014 31.4546 70.0013 31.4521 70.0022 31.4498C73.84 21.3387 69.8851 10.1301 61.0674 6.2946C56.889 4.47707 52.3605 4.63792 48.3119 6.37244C43.3292 8.50723 36.1377 8.50722 31.1549 6.37243C30.8026 6.22149 30.4467 6.08246 30.0876 5.95562Z" fill="url(#paint4_linear_6_175)" fill-opacity="0.1"/>
<path fill-rule="evenodd" clip-rule="evenodd" d="M30.0876 5.95562C30.629 12.9457 33.8345 24.2436 43.9621 32.9504C50.2878 38.3886 58.1769 41.0794 65.3748 42.2436C66.424 39.4796 67.5678 36.7505 68.8047 34.061L70.0023 31.4568C70.0014 31.4546 70.0013 31.4521 70.0022 31.4498C73.84 21.3387 69.8851 10.1301 61.0674 6.2946C56.889 4.47707 52.3605 4.63792 48.3119 6.37244C43.3292 8.50723 36.1377 8.50722 31.1549 6.37243C30.8026 6.22149 30.4467 6.08246 30.0876 5.95562Z" fill="url(#paint5_linear_6_175)"/>
<path fill-rule="evenodd" clip-rule="evenodd" d="M30.0876 5.95562C30.629 12.9457 33.8345 24.2436 43.9621 32.9504C50.2878 38.3886 58.1769 41.0794 65.3748 42.2436C66.424 39.4796 67.5678 36.7505 68.8047 34.061L70.0023 31.4568C70.0014 31.4546 70.0013 31.4521 70.0022 31.4498C73.84 21.3387 69.8851 10.1301 61.0674 6.2946C56.889 4.47707 52.3605 4.63792 48.3119 6.37244C43.3292 8.50723 36.1377 8.50722 31.1549 6.37243C30.8026 6.22149 30.4467 6.08246 30.0876 5.95562Z" fill="url(#paint6_linear_6_175)" fill-opacity="0.1"/>
<path fill-rule="evenodd" clip-rule="evenodd" d="M30.0876 5.95562C30.629 12.9457 33.8345 24.2436 43.9621 32.9504C50.2878 38.3886 58.1769 41.0794 65.3748 42.2436C66.424 39.4796 67.5678 36.7505 68.8047 34.061L70.0023 31.4568C70.0014 31.4546 70.0013 31.4521 70.0022 31.4498C73.84 21.3387 69.8851 10.1301 61.0674 6.2946C56.889 4.47707 52.3605 4.63792 48.3119 6.37244C43.3292 8.50723 36.1377 8.50722 31.1549 6.37243C30.8026 6.22149 30.4467 6.08246 30.0876 5.95562Z" fill="url(#paint7_linear_6_175)" fill-opacity="0.1"/>
<path d="M32.8027 17.325C34.891 22.5495 38.3721 28.1446 43.9621 32.9504C47.2743 35.7979 51.0151 37.8921 54.8608 39.4083L59.3993 28.7209C62.3101 21.8665 56.1119 14.6442 48.8952 16.4812L44.0856 17.7054C40.7516 18.5541 37.2551 18.5284 33.9339 17.6308L32.8027 17.325Z" fill="url(#paint8_radial_6_175)"/>
<defs>
<linearGradient id="paint0_linear_6_175" x1="16.4002" y1="5" x2="54.6669" y2="72.2" gradientUnits="userSpaceOnUse">
<stop stop-color="#F0F6F9"/>
<stop offset="1" stop-color="#CDDFF2"/>
</linearGradient>
<linearGradient id="paint1_linear_6_175" x1="16.4002" y1="5" x2="54.6669" y2="72.2" gradientUnits="userSpaceOnUse">
<stop stop-color="#F0F6F9"/>
<stop offset="1" stop-color="#CDDFF2"/>
</linearGradient>
<linearGradient id="paint2_linear_6_175" x1="61" y1="3" x2="39" y2="48.5" gradientUnits="userSpaceOnUse">
<stop stop-color="#E0EDF6"/>
<stop offset="1" stop-color="#A5CAE8"/>
</linearGradient>
<linearGradient id="paint3_linear_6_175" x1="29" y1="11.5" x2="35.5" y2="11.5" gradientUnits="userSpaceOnUse">
<stop stop-color="#043A70"/>
<stop offset="1" stop-color="#065099" stop-opacity="0"/>
</linearGradient>
<linearGradient id="paint4_linear_6_175" x1="61.5" y1="44.5" x2="61.5" y2="38" gradientUnits="userSpaceOnUse">
<stop stop-color="#002C57"/>
<stop offset="1" stop-color="#065099" stop-opacity="0"/>
</linearGradient>
<linearGradient id="paint5_linear_6_175" x1="61" y1="3" x2="39" y2="48.5" gradientUnits="userSpaceOnUse">
<stop stop-color="#E0EDF6"/>
<stop offset="1" stop-color="#A5CAE8"/>
</linearGradient>
<linearGradient id="paint6_linear_6_175" x1="29" y1="11.5" x2="35.5" y2="11.5" gradientUnits="userSpaceOnUse">
<stop stop-color="#043A70"/>
<stop offset="1" stop-color="#065099" stop-opacity="0"/>
</linearGradient>
<linearGradient id="paint7_linear_6_175" x1="61.5" y1="44.5" x2="61.5" y2="38" gradientUnits="userSpaceOnUse">
<stop stop-color="#002C57"/>
<stop offset="1" stop-color="#065099" stop-opacity="0"/>
</linearGradient>
<radialGradient id="paint8_radial_6_175" cx="0" cy="0" r="1" gradientUnits="userSpaceOnUse" gradientTransform="translate(43.5 33) rotate(-49.5378) scale(22.3439 24.599)">
<stop stop-color="#F5A2A1"/>
<stop offset="1" stop-color="#D96F6E"/>
</radialGradient>
</defs>
</svg>
