<svg width="80" height="80" viewBox="0 0 80 80" fill="none" xmlns="http://www.w3.org/2000/svg">
<path fill-rule="evenodd" clip-rule="evenodd" d="M48.312 6.37244C43.3292 8.50723 36.1378 8.50722 31.155 6.37243C27.1065 4.63793 22.5781 4.47709 18.3997 6.2946C9.58197 10.1301 5.62705 21.3387 9.46488 31.4498C9.46573 31.4521 9.46569 31.4546 9.46476 31.4568L10.6624 34.061C14.7109 42.8641 17.7625 52.0923 19.7603 61.5735L21.6608 70.5927C22.3185 73.1855 24.6426 75 27.3059 75C30.1662 75 32.6034 72.9137 33.0575 70.0765L35.7368 53.3363C36.0523 51.3647 37.7459 49.9149 39.7336 49.9149C41.7212 49.9149 43.4149 51.3647 43.7304 53.3363L46.4096 70.0765C46.8637 72.9137 49.3009 75 52.1612 75C54.8245 75 57.1486 73.1855 57.8063 70.5927L59.7068 61.5735C61.7046 52.0923 64.7562 42.8641 68.8047 34.061L70.0023 31.4568C70.0014 31.4546 70.0014 31.4521 70.0022 31.4498C73.84 21.3387 69.8851 10.1301 61.0674 6.2946C56.889 4.47707 52.3605 4.63792 48.312 6.37244Z" fill="url(#paint0_linear_18_29)"/>
<path d="M8.51085 28.2408C11.6735 35.8597 16.8262 43.9474 24.9432 50.9256C28.089 53.6301 31.4927 55.8817 35.0308 57.7469L35.7368 53.3363C36.0523 51.3647 37.7459 49.9149 39.7336 49.9149C41.7212 49.9149 43.4149 51.3647 43.7304 53.3363L45.1154 61.9903C49.7789 63.5187 54.475 64.5267 58.9532 65.1497L59.7068 61.5735C61.7046 52.0923 64.7562 42.8641 68.8047 34.061L70.0023 31.4568C70.0014 31.4546 70.0014 31.4521 70.0022 31.4498C73.84 21.3387 69.8851 10.1301 61.0674 6.2946C56.889 4.47707 52.3605 4.63792 48.312 6.37244C43.3292 8.50723 36.1378 8.50722 31.155 6.37243C27.1065 4.63793 22.5781 4.47709 18.3997 6.2946C10.5071 9.72769 6.51048 19.0679 8.51085 28.2408Z" fill="url(#paint1_linear_18_29)"/>
<path d="M8.51085 28.2408C11.6735 35.8597 16.8262 43.9474 24.9432 50.9256C28.089 53.6301 31.4927 55.8817 35.0308 57.7469L35.7368 53.3363C36.0523 51.3647 37.7459 49.9149 39.7336 49.9149C41.7212 49.9149 43.4149 51.3647 43.7304 53.3363L45.1154 61.9903C49.7789 63.5187 54.475 64.5267 58.9532 65.1497L59.7068 61.5735C61.7046 52.0923 64.7562 42.8641 68.8047 34.061L70.0023 31.4568C70.0014 31.4546 70.0014 31.4521 70.0022 31.4498C73.84 21.3387 69.8851 10.1301 61.0674 6.2946C56.889 4.47707 52.3605 4.63792 48.312 6.37244C43.3292 8.50723 36.1378 8.50722 31.155 6.37243C27.1065 4.63793 22.5781 4.47709 18.3997 6.2946C10.5071 9.72769 6.51048 19.0679 8.51085 28.2408Z" fill="url(#paint2_linear_18_29)" fill-opacity="0.1"/>
<path d="M8.51085 28.2408C11.6735 35.8597 16.8262 43.9474 24.9432 50.9256C28.089 53.6301 31.4927 55.8817 35.0308 57.7469L35.7368 53.3363C36.0523 51.3647 37.7459 49.9149 39.7336 49.9149C41.7212 49.9149 43.4149 51.3647 43.7304 53.3363L45.1154 61.9903C49.7789 63.5187 54.475 64.5267 58.9532 65.1497L59.7068 61.5735C61.7046 52.0923 64.7562 42.8641 68.8047 34.061L70.0023 31.4568C70.0014 31.4546 70.0014 31.4521 70.0022 31.4498C73.84 21.3387 69.8851 10.1301 61.0674 6.2946C56.889 4.47707 52.3605 4.63792 48.312 6.37244C43.3292 8.50723 36.1378 8.50722 31.155 6.37243C27.1065 4.63793 22.5781 4.47709 18.3997 6.2946C10.5071 9.72769 6.51048 19.0679 8.51085 28.2408Z" fill="url(#paint3_linear_18_29)" fill-opacity="0.1"/>
<path d="M30.0952 54.8216C28.932 54.0489 27.7916 53.2267 26.679 52.3524C26.1419 47.7315 24.9347 43.2032 23.0872 38.9123L18.7292 28.7904C15.7761 21.9316 21.9789 14.6673 29.2157 16.5094L34.0664 17.7442C37.3038 18.5682 40.6961 18.5682 43.9336 17.7442L49.301 16.3779C56.4427 14.56 62.6226 21.6265 59.8693 28.4623L55.4759 39.3702C53.18 45.0703 52 51.1583 52 57.3035V63.8861C51.2618 63.7191 50.5213 63.5406 49.7795 63.35L48.5479 51.3417C48.2079 48.0269 46.1564 45.1324 43.1413 43.7136C40.8351 42.6283 38.1649 42.6283 35.8586 43.7136C32.8436 45.1324 30.7921 48.0269 30.4521 51.3417L30.0952 54.8216Z" fill="url(#paint4_radial_18_29)"/>
<defs>
<linearGradient id="paint0_linear_18_29" x1="16.4002" y1="5" x2="54.6669" y2="72.2" gradientUnits="userSpaceOnUse">
<stop stop-color="#F0F6F9"/>
<stop offset="1" stop-color="#CDDFF2"/>
</linearGradient>
<linearGradient id="paint1_linear_18_29" x1="61" y1="3" x2="39" y2="48.5" gradientUnits="userSpaceOnUse">
<stop stop-color="#E0EDF6"/>
<stop offset="1" stop-color="#A5CAE8"/>
</linearGradient>
<linearGradient id="paint2_linear_18_29" x1="14.5" y1="48.5" x2="21" y2="40" gradientUnits="userSpaceOnUse">
<stop stop-color="#043A70"/>
<stop offset="1" stop-color="#065099" stop-opacity="0"/>
</linearGradient>
<linearGradient id="paint3_linear_18_29" x1="59" y1="65" x2="60.5" y2="58" gradientUnits="userSpaceOnUse">
<stop stop-color="#002C57"/>
<stop offset="1" stop-color="#065099" stop-opacity="0"/>
</linearGradient>
<radialGradient id="paint4_radial_18_29" cx="0" cy="0" r="1" gradientUnits="userSpaceOnUse" gradientTransform="translate(39.2575 43.4617) rotate(-70.7665) scale(29.149 25.802)">
<stop stop-color="#F8BAB9"/>
<stop offset="1" stop-color="#C9706F"/>
</radialGradient>
</defs>
</svg>
