<svg width="80" height="80" viewBox="0 0 80 80" fill="none" xmlns="http://www.w3.org/2000/svg">
<path d="M14 36C20.5519 39.5143 27.8714 41.3534 35.3063 41.3534H44.0914C51.6458 41.3534 59.0696 39.384 65.6305 35.6393L60.1681 69H17.2694L14 36Z" fill="url(#paint0_linear_30_350)"/>
<path d="M7.35052 40.0081C7.16103 37.3006 9.30628 35 12.0204 35C14.1374 35 15.9909 36.4208 16.5409 38.4651L22.8909 62.0692C23.69 65.0397 26.2364 67.2111 29.2958 67.5309C32.053 67.8192 34.7414 66.5491 36.2699 64.2364L36.3251 64.1528C36.8253 63.3959 37.1315 62.5275 37.2166 61.6243L38.0124 53.176C38.1157 52.0795 39.6565 51.931 39.9674 52.9875L42.6553 62.1238C42.8262 62.7047 43.0828 63.2568 43.4166 63.7619L43.7301 64.2364C45.2586 66.5492 47.947 67.8192 50.7042 67.5309C53.7636 67.2111 56.31 65.0397 57.1091 62.0692L63.4591 38.4651C64.0091 36.4208 65.8626 35 67.9797 35C70.6937 35 72.839 37.3007 72.6495 40.0081L70.9117 64.8378C70.4717 71.1247 65.2432 76 58.941 76H21.0591C14.7568 76 9.52836 71.1247 9.08834 64.8378L7.35052 40.0081Z" fill="#F7A6A5"/>
<path fill-rule="evenodd" clip-rule="evenodd" d="M39.6308 6.87404C35.9953 9.17424 30.358 10.0895 26.1815 9.05767C22.7881 8.21931 19.2179 8.67013 16.1728 10.6203C9.74659 14.7359 8.06656 23.9866 12.3562 31.389C12.3571 31.3906 12.3574 31.3926 12.357 31.3944L13.6258 33.2744C17.9148 39.6292 21.4762 46.4426 24.2437 53.5876L26.8763 60.3844C27.7204 62.3241 29.7722 63.4444 31.8599 63.1055C34.1021 62.7414 35.7483 60.8031 35.7447 58.5311L35.7239 45.1257C35.7214 43.5469 36.8653 42.2 38.4234 41.947C39.9816 41.694 41.4929 42.6099 41.9901 44.1084L46.2114 56.8317C46.9269 58.9881 49.1017 60.3061 51.3439 59.942C53.4317 59.6031 55.0236 57.8912 55.2107 55.784L55.5576 48.5034C55.9224 40.8499 57.1452 33.2597 59.2034 25.8744L59.8123 23.6896C59.8112 23.688 59.8109 23.686 59.8113 23.6842C61.5386 15.3049 57.0181 7.06087 49.6199 5.18985C46.1142 4.30323 42.5847 5.00512 39.6308 6.87404Z" fill="url(#paint1_linear_30_350)"/>
<defs>
<linearGradient id="paint0_linear_30_350" x1="43" y1="36" x2="42.5299" y2="67.5004" gradientUnits="userSpaceOnUse">
<stop stop-color="#C15D5D"/>
<stop offset="0.828884" stop-color="#D7908E"/>
</linearGradient>
<linearGradient id="paint1_linear_30_350" x1="14.4414" y1="9.86451" x2="52.7705" y2="57.5848" gradientUnits="userSpaceOnUse">
<stop stop-color="#F0F6F9"/>
<stop offset="1" stop-color="#CDDFF2"/>
</linearGradient>
</defs>
</svg>
