<svg width="80" height="80" viewBox="0 0 80 80" fill="none" xmlns="http://www.w3.org/2000/svg">
<path fill-rule="evenodd" clip-rule="evenodd" d="M48.312 6.37244C43.3292 8.50723 36.1378 8.50722 31.155 6.37243C27.1065 4.63793 22.5781 4.47709 18.3997 6.2946C9.58027 10.1309 5.62553 21.3431 9.46716 31.4558L9.46479 31.4568L15.7542 47.3071L21.6608 70.5927C22.3185 73.1855 24.6427 75 27.3059 75C30.1662 75 32.6034 72.9137 33.0575 70.0765L35.7368 53.3363C36.0523 51.3647 37.746 49.9149 39.7336 49.9149C41.7213 49.9149 43.4149 51.3647 43.7304 53.3363L46.4096 70.0765C46.8637 72.9137 49.3009 75 52.1613 75C54.8245 75 57.1486 73.1855 57.8063 70.5927L63.713 47.3071L70.0024 31.4568L70 31.4558C73.8416 21.3431 69.8869 10.1309 61.0674 6.2946C56.889 4.47707 52.3605 4.63792 48.312 6.37244Z" fill="url(#paint0_linear_28_29)"/>
<mask id="mask0_28_29" style="mask-type:alpha" maskUnits="userSpaceOnUse" x="9" y="12" width="63" height="63">
<path fill-rule="evenodd" clip-rule="evenodd" d="M9.58597 31.7644L15.7533 47.3071L21.6599 70.5927C22.3176 73.1855 24.6418 75 27.305 75C30.1653 75 32.6025 72.9137 33.0566 70.0765L35.7359 53.3363C36.0515 51.3647 37.7451 49.9149 39.7327 49.9149C41.7204 49.9149 43.414 51.3647 43.7295 53.3363L46.4087 70.0765C46.8628 72.9137 49.3 75 52.1604 75C54.8236 75 57.1477 73.1855 57.8054 70.5927L63.7121 47.3071L70.0015 31.4568L69.9991 31.4558C72.5255 24.8052 71.68 17.679 68.2964 12.488L9.58597 31.7644Z" fill="url(#paint1_linear_28_29)"/>
</mask>
<g mask="url(#mask0_28_29)">
<rect y="12.488" width="77.5249" height="67.512" fill="url(#paint2_linear_28_29)"/>
<g filter="url(#filter0_f_28_29)">
<path d="M49.0418 39.5882C52.6318 40.8383 56.5633 38.9948 57.8981 35.4354L62.3667 23.519L67.0884 13.0001L12.304 30.9749C17.7276 30.1197 23.2786 30.617 28.4639 32.4226L49.0418 39.5882Z" fill="url(#paint3_linear_28_29)" fill-opacity="0.17"/>
</g>
<g filter="url(#filter1_f_28_29)">
<path d="M36.9874 35.7756C49.431 40.4005 62.8923 32.0347 64.2551 18.8296C64.3421 17.9864 64.6234 17.1748 65.0767 16.4585L68.4231 11.1712L67.0884 13L12.304 30.9749L12.7972 30.8971C17.8902 30.094 23.1042 30.6157 27.9371 32.4119L36.9874 35.7756Z" fill="url(#paint4_linear_28_29)" fill-opacity="0.17"/>
</g>
<g filter="url(#filter2_f_28_29)">
<path d="M47.6933 39.7546C54.6366 42.3352 62.1163 37.5405 62.6704 30.154C62.9168 26.8703 63.6495 23.6415 64.8447 20.5732L67.0583 14.8906C67.6504 13.3706 66.0189 11.9417 64.5902 12.7289L12.304 30.9749L16.5549 30.3046C19.1843 29.8899 21.8762 30.1593 24.3714 31.0866L47.6933 39.7546Z" fill="url(#paint5_linear_28_29)" fill-opacity="0.17"/>
</g>
<path d="M59.5341 26.8824C57.1955 32.1677 51.4216 35.0351 45.7974 33.7043L34.2536 30.9729C26.1984 29.4283 17.9031 29.6625 9.94785 31.6589L68.3474 12.4688C66.5331 13.0649 65.0565 14.402 64.2837 16.1484L59.5341 26.8824Z" fill="url(#paint6_linear_28_29)"/>
</g>
<defs>
<filter id="filter0_f_28_29" x="11.304" y="12.0001" width="56.7844" height="28.9792" filterUnits="userSpaceOnUse" color-interpolation-filters="sRGB">
<feFlood flood-opacity="0" result="BackgroundImageFix"/>
<feBlend mode="normal" in="SourceGraphic" in2="BackgroundImageFix" result="shape"/>
<feGaussianBlur stdDeviation="0.5" result="effect1_foregroundBlur_28_29"/>
</filter>
<filter id="filter1_f_28_29" x="7.30402" y="6.17117" width="66.1191" height="35.8897" filterUnits="userSpaceOnUse" color-interpolation-filters="sRGB">
<feFlood flood-opacity="0" result="BackgroundImageFix"/>
<feBlend mode="normal" in="SourceGraphic" in2="BackgroundImageFix" result="shape"/>
<feGaussianBlur stdDeviation="2.5" result="effect1_foregroundBlur_28_29"/>
</filter>
<filter id="filter2_f_28_29" x="7.30402" y="7.50543" width="64.879" height="37.9545" filterUnits="userSpaceOnUse" color-interpolation-filters="sRGB">
<feFlood flood-opacity="0" result="BackgroundImageFix"/>
<feBlend mode="normal" in="SourceGraphic" in2="BackgroundImageFix" result="shape"/>
<feGaussianBlur stdDeviation="2.5" result="effect1_foregroundBlur_28_29"/>
</filter>
<linearGradient id="paint0_linear_28_29" x1="7.99977" y1="-12.5" x2="39.9998" y2="47.5" gradientUnits="userSpaceOnUse">
<stop stop-color="#F6F1E8"/>
<stop offset="1" stop-color="#D8B682"/>
</linearGradient>
<linearGradient id="paint1_linear_28_29" x1="16.5414" y1="5.00001" x2="54.4797" y2="72.7444" gradientUnits="userSpaceOnUse">
<stop stop-color="#F1F7FA"/>
<stop offset="1" stop-color="#CFE0F3"/>
</linearGradient>
<linearGradient id="paint2_linear_28_29" x1="26.5266" y1="23.3616" x2="49.9212" y2="73.6704" gradientUnits="userSpaceOnUse">
<stop stop-color="#F0F6FA"/>
<stop offset="1" stop-color="#CEE0F3"/>
</linearGradient>
<linearGradient id="paint3_linear_28_29" x1="48.7599" y1="20.9087" x2="53.589" y2="44.2493" gradientUnits="userSpaceOnUse">
<stop stop-color="#134980"/>
<stop offset="1" stop-color="#236BB4" stop-opacity="0"/>
</linearGradient>
<linearGradient id="paint4_linear_28_29" x1="48.76" y1="20.9086" x2="53.5891" y2="44.2492" gradientUnits="userSpaceOnUse">
<stop stop-color="#134980"/>
<stop offset="1" stop-color="#236BB4" stop-opacity="0"/>
</linearGradient>
<linearGradient id="paint5_linear_28_29" x1="48.76" y1="20.9086" x2="53.5891" y2="44.2492" gradientUnits="userSpaceOnUse">
<stop stop-color="#134980"/>
<stop offset="1" stop-color="#236BB4" stop-opacity="0"/>
</linearGradient>
<linearGradient id="paint6_linear_28_29" x1="45.5102" y1="34.0802" x2="40.9469" y2="21.4636" gradientUnits="userSpaceOnUse">
<stop stop-color="#F4F8FB"/>
<stop offset="0.651561" stop-color="white"/>
<stop offset="1" stop-color="#F9F6F2"/>
</linearGradient>
</defs>
</svg>
