<svg xmlns="http://www.w3.org/2000/svg" viewBox="0 0 100 100" id="dentist-tool"><path d="M19 1C12.934 1 8 5.935 8 12c0 5.728 4.402 10.442 10 10.949V41a1 1 0 0 0-.949.684l-2 6a.993.993 0 0 0-.046.29c0 .009-.005.017-.005.026v47c0 2.206 1.794 4 4 4s4-1.794 4-4V48c0-.01-.005-.017-.005-.027a.998.998 0 0 0-.046-.29l-2-6A1.002 1.002 0 0 0 20 41V22.949c5.598-.507 10-5.221 10-10.949 0-6.065-4.935-11-11-11zm2 48v46c0 1.103-.897 2-2 2s-2-.897-2-2V49h4zm-.387-2h-3.226l1.333-4h.559l1.334 4zM19 21c-4.962 0-9-4.038-9-9s4.038-9 9-9 9 4.038 9 9-4.038 9-9 9zM50.181 1.062a11.043 11.043 0 0 0-7.49 1.926 1 1 0 0 0 1.148 1.638 9.015 9.015 0 0 1 6.134-1.574c4.159.435 7.511 3.765 7.97 7.92.383 3.469-1.2 6.779-4.132 8.637C50.172 21.914 48 25.699 48 29.733V41a1 1 0 0 0-.949.684l-2 6a.993.993 0 0 0-.046.29c0 .009-.005.017-.005.026v47c0 2.206 1.794 4 4 4s4-1.794 4-4V48c0-.01-.005-.017-.005-.027a.998.998 0 0 0-.046-.29l-2-6A1.002 1.002 0 0 0 50 41V29.733c0-3.345 1.825-6.498 4.881-8.435 3.583-2.271 5.518-6.311 5.05-10.546-.561-5.083-4.662-9.158-9.75-9.69zM51 49v46c0 1.103-.897 2-2 2s-2-.897-2-2V49h4zm-.387-2h-3.226l1.333-4h.559l1.334 4zm40.908-33.853-19.659-12a1 1 0 0 0-1.21 1.578l11.775 11.206-17.81-8.741a1 1 0 0 0-1.06 1.682l14.426 11.404L80 93.027a1 1 0 0 0 .08.355L80 95c0 2.206 1.794 4 4 4s4-1.794 3.999-3.951l4-81a1.001 1.001 0 0 0-.478-.902zm-11.552 4.607a1.003 1.003 0 0 0-.379-.758l-7.442-5.883 11.757 5.771-2.571 51.43-1.365-50.56zM86 95c0 1.103-.897 2-2 2s-2-.897-2.001-1.95l4-80a.997.997 0 0 0-.309-.774l-6.872-6.54 11.154 6.809L86 95z"></path></svg>