<svg xmlns="http://www.w3.org/2000/svg" viewBox="0 0 512 512" id="gum"><path d="M501.755,298.04c-.216-11.351.83-25.353-5.33-35.5-3.438-5.662-9.066-9.013-13.437-13.818-6.143-6.752-8.083-16.744-14.752-22.876-4.147-3.813-9.377-4.849-14.609-4.334a249.789,249.789,0,0,0,8.093-26c2.577-9.651,4.81-19.5,5.28-29.516.811-17.3-5.069-34.257-15.57-47.93-10.936-14.241-26.12-22.049-44.188-17.956a80.006,80.006,0,0,0-24.615,10.009c-4.413,2.826-7.908,6.507-13.446,6.8-6.1.327-11.646-3.524-16.576-6.618-6.223-3.905-12.506-7.808-19.617-9.9-17.562-5.165-35.841,2.261-48.977,14-14.744,13.171-21.759,32.114-22.006,51.646-.234,18.6,6.233,35.862,12.908,52.917.272.695.523,1.4.787,2.093a38,38,0,0,0-15.91-5.883,36.189,36.189,0,0,0-20.183,3.514c2.767-7.589,4.943-15.369,7.027-23.177,2.576-9.651,4.81-19.5,5.279-29.516.811-17.3-5.069-34.257-15.569-47.93-10.937-14.241-26.12-22.049-44.188-17.956a80,80,0,0,0-24.615,10.009c-4.414,2.826-7.909,6.507-13.447,6.8-6.1.327-11.646-3.524-16.575-6.618-6.223-3.905-12.507-7.808-19.618-9.9-17.561-5.165-35.84,2.261-48.976,14-14.745,13.171-21.759,32.114-22.006,51.646-.225,17.821,5.7,34.408,12.068,50.765-6.918.068-13.676,2.192-17.82,8.367-2.146,3.2-3.131,7-4.618,10.513a42.21,42.21,0,0,1-7.865,12.581A63.371,63.371,0,0,0,15.338,269C11.227,279.73,10.9,292.056,10.12,303.4a385.352,385.352,0,0,0-.671,40.357c.436,12.195.9,24.824,3.322,36.817,3.956,19.614,20.062,28.605,38.679,30.733,13.879,1.586,28.177,1.082,42.126,1.257q26.589.334,53.18.361c32.15.082,64.3-.031,96.45-.1,56.58-.121,113.172.432,169.752.882,26.048.207,56.184,3.091,74.748-19.131,9-10.777,13.738-25.3,14.638-39.191C503.574,336.394,502.118,317.046,501.755,298.04ZM279.51,140.017c6.895-14.936,22.738-28.3,39.622-29.266,14.307-.822,23.942,9.186,36.036,14.824,5.831,2.719,11.906,4.029,18.306,2.843,5.525-1.023,9.392-3.966,13.87-7.051,12.473-8.591,31.221-15.084,44.76-5.758,12.029,8.287,20.12,23.967,22.366,38.149,2.918,18.423-3.631,38.355-9.231,55.689-4.414,13.665-10.663,26.415-14.024,40.459-4.027,16.822-6.538,33.621-6.2,50.957.306,15.673,1.887,32.379-1.917,47.744a41.77,41.77,0,0,1-7.15,14.951c-2.174,2.9-8.032,9.834-12.5,7.266-2.323-1.334-1.429-5.042-1.1-7.267.725-4.975,1.6-9.921,2.237-14.912.887-6.908,2.031-13.821,2.7-20.753a79.594,79.594,0,0,0-6.471-40.017c-6.077-13.414-16.96-26.9-32.412-28.877-17.3-2.209-30.4,8.784-38.269,23.161a96.586,96.586,0,0,0-11.379,53.484,101.686,101.686,0,0,0,1.93,13.282c1.021,4.75,3.051,9.45,3.492,14.3.275,3.032-.423,7.795-4.422,6.893-3.353-.756-6.072-4.06-7.817-6.83-7.112-11.289-7.724-26.483-8.621-39.373-1.329-19.083-1.5-38.243-3.925-57.241a209.483,209.483,0,0,0-5.661-29.286C284.7,205.727,264.16,173.268,279.51,140.017Zm-215.087,0c6.895-14.936,22.738-28.3,39.623-29.266,14.306-.822,23.942,9.186,36.035,14.824,5.832,2.719,11.906,4.029,18.306,2.843,5.526-1.023,9.393-3.966,13.871-7.051,12.472-8.591,31.22-15.084,44.759-5.758,12.029,8.287,20.12,23.967,22.366,38.149,2.919,18.423-3.631,38.355-9.23,55.689-4.415,13.665-10.663,26.415-14.025,40.459-4.026,16.822-6.538,33.621-6.2,50.957.305,15.673,1.886,32.379-1.917,47.744a41.8,41.8,0,0,1-7.15,14.951c-2.174,2.9-8.033,9.834-12.506,7.266-2.323-1.334-1.428-5.042-1.1-7.267.726-4.975,1.6-9.921,2.238-14.912.886-6.908,2.031-13.821,2.7-20.753a79.593,79.593,0,0,0-6.47-40.017c-6.078-13.414-16.961-26.9-32.413-28.877-17.3-2.209-30.4,8.784-38.269,23.161a96.577,96.577,0,0,0-11.378,53.484,101.516,101.516,0,0,0,1.93,13.282c1.02,4.75,3.051,9.45,3.491,14.3.276,3.032-.423,7.795-4.421,6.893-3.354-.756-6.072-4.06-7.817-6.83-7.112-11.289-7.724-26.483-8.622-39.373-1.328-19.083-1.5-38.243-3.925-57.241a209.625,209.625,0,0,0-5.66-29.286C69.614,205.727,49.073,173.268,64.423,140.017Zm421.841,233.09c-3.7,9.076-8.861,16.869-17.507,21.867-7,4.045-15.129,6.034-23.141,6.7a131.935,131.935,0,0,1-13.677.222c-4.369-.09-8.74-.1-13.11-.14q-80-.691-160.009-.94c-57.515-.17-115.029.508-172.543-.353-12.523-.187-25.868.67-38.223-1.7-7.3-1.4-14.949-4.136-19.474-10.392-6.016-8.316-5.69-21.076-6.391-30.844-1.75-24.388-1.643-49.482,1.793-73.732a48.074,48.074,0,0,1,9.38-22.846c2.182-2.818,4.878-5.178,7.054-8.013a57.742,57.742,0,0,0,7.43-13.393c1.064-2.591,1.781-6.049,3.663-8.209,2.521-2.894,7.125-3.019,10.644-2.494a6.847,6.847,0,0,0,1.281.069q1.952,5.781,3.628,11.665c5.774,20.948,7.068,42.56,8.111,64.161.842,17.456,1.051,35.739,6.051,52.628C84.817,369.5,97.6,389.079,112.763,380.6c8.286-4.635,9.274-14.865,7.459-23.189-2.171-9.96-4.886-19.019-4.85-29.358a86.6,86.6,0,0,1,5.153-29.038c3.147-8.751,7.986-18.824,15.763-24.39A21.985,21.985,0,0,1,158,272.694c6.139,3.016,10.421,8.974,13.9,14.666,7.551,12.349,9.661,27.371,8.181,41.6-.006.05-.009.086-.012.116-.028.18-.067.428-.121.781-.42,2.751-.786,5.511-1.142,8.271-.755,5.835-1.382,11.688-2.307,17.5-1.225,7.693-3.659,16.9,2.593,23.2,11.651,11.733,27.223-1.424,33.79-11.639,8.938-13.9,9.456-31.222,9.475-47.274.021-17.317-1.211-34.246,2-51.42a220.659,220.659,0,0,1,7.707-29.327,6.2,6.2,0,0,0,3.226-2.289c-.977,1.3.813-.9,1.513-1.615a29.152,29.152,0,0,1,4.6-3.884,24.942,24.942,0,0,1,18.085-4.206A27.829,27.829,0,0,1,277.9,240.122a5.431,5.431,0,0,0,4.892,2.9c5.219,20.181,6.465,40.949,7.467,61.709.843,17.456,1.051,35.739,6.051,52.628,3.593,12.136,16.372,31.717,31.54,23.234,8.285-4.635,9.274-14.865,7.459-23.189-2.172-9.96-4.886-19.019-4.85-29.358a86.578,86.578,0,0,1,5.153-29.038c3.146-8.751,7.986-18.824,15.762-24.39a21.985,21.985,0,0,1,21.707-1.927c6.139,3.016,10.421,8.974,13.9,14.666,7.551,12.349,9.662,27.371,8.181,41.6,0,.05-.918,6.408-1.275,9.168-.754,5.835-1.381,11.688-2.307,17.5-1.224,7.693-3.658,16.9,2.594,23.2,11.65,11.733,27.223-1.424,33.79-11.639,8.937-13.9,9.455-31.222,9.474-47.274.021-17.317-1.21-34.246,2-51.42a226.046,226.046,0,0,1,9.122-33.437c3.006-1.182,6.73-2.577,9.866-1.387,2.625,1,3.8,3.986,5.023,6.418,4.28,8.53,9.223,16.028,16.564,22.225,1.152.973,2.312,1.936,3.377,3,.229.231,1.92,2.191,1.806,1.984.412.573.777,1.174,1.145,1.775a5.614,5.614,0,0,1,.931,1.948c1.572,4.363,1.818,8.81,2.063,13.412,1.013,19.039,1.064,38.228,1.249,57.292C490.694,352.568,490.405,362.952,486.264,373.107Z"></path></svg>