<svg xmlns="http://www.w3.org/2000/svg" viewBox="0 0 48 48" id="incisor"><path fill="#db5669" d="M47,22V47H1V22c8.32-3.33,10.9-5.17,14.63-3.18,18.06,0,16.67,0,16.89-.08a7,7,0,0,1,5.73-.24Z"></path><path fill="#f26674" d="M47,22V45H6a3,3,0,0,1-3-3V21.2c6.86-2.74,7.55-3.2,9.35-3.2a6.93,6.93,0,0,1,3.28.82c18.06,0,16.67,0,16.89-.08a7,7,0,0,1,5.73-.24Z"></path><path fill="#dad7e5" d="M35,7.25c0,3.47-1.2,5.56-1.93,8.33-.61,2.36-1.43,7.29-1.53,7.29A3,3,0,0,1,28.68,25c-10,0-9.66.06-10.22-.13-2.69-.8-2-3.41-3.53-9.29C14.2,12.81,13,10.72,13,7.25c0-1.12,0-4.51,2.7-5.76,1.65-.8,4.72-.52,6.3.08a5.85,5.85,0,0,0,4,0A11,11,0,0,1,29.87,1C35,1,35,5.86,35,7.25Z"></path><path fill="#edebf2" d="M35,7.25c0,3.47-1.2,5.56-1.93,8.33-.35,1.35-.92,4.38-1.45,7-.1.43.92.4-10.3.4a3,3,0,0,1-2.94-2.4c-.53-2.64-1.1-5.67-1.45-7-.5-1.88-3.19-8.11-1.23-12.09,1.65-.8,4.72-.52,6.3.08a5.85,5.85,0,0,0,4,0A11,11,0,0,1,29.87,1C35,1,35,5.86,35,7.25Z"></path><path fill="#dad7e5" d="M29.54,24.87c-1.74,14.82-1.17,12.35-3,16C25.89,42.22,24.64,42,23.24,42s-1.88-1.3-2.61-2.75c-.88-1.73-.69-1.79-2.17-14.38.54.18.06.13,10.22.13A2.71,2.71,0,0,0,29.54,24.87Z"></path><path fill="#edebf2" d="M29.54,24.87c-1.48,12.58-1.33,12.72-2.17,14.38-.42.82-.3.75-.61.75-1.41,0-2.65.21-3.31-1.11-1.83-3.66-1.32-1.8-2.74-13.89C29.23,25,29,25.05,29.54,24.87Z"></path><path d="M47 46H1a1 1 0 0 0 0 2H47A1 1 0 0 0 47 46zM1 23c.28 0-.47.26 9.12-3.57a6.08 6.08 0 0 1 4.63.08c.58 2.92.57 4.93 2.78 6C19 37.74 18.8 37.86 19.74 39.7c.78 1.56 1.34 3.3 3.5 3.3 1.52 0 3.25.24 4.2-1.66 2-3.93 1.41-2.06 3-15.78 2.17-1.09 2.14-2.86 2.78-6a6.08 6.08 0 0 1 4.63-.08l8.75 3.5a1 1 0 0 0 .74-1.86c-9.1-3.64-10.39-4.63-13.66-3.82.88-4.14 2.29-6 2.29-10C36 .94 32.16 0 29.87 0a12 12 0 0 0-4.21.63C23 1.61 22.59 0 18.13 0 15.84 0 12 .94 12 7.25c0 4 1.41 5.89 2.29 10C11 16.44 9.53 17.51.63 21.07A1 1 0 0 0 1 23zM25.66 40.44c-.34.67-.8.56-2.42.56-.76 0-.87-.5-1.72-2.2C20.81 37.39 21 37.63 19.6 26h8.8C26.87 39 27.43 36.89 25.66 40.44zM18.13 2a10.18 10.18 0 0 1 3.53.51 6.81 6.81 0 0 0 4.69 0A10.35 10.35 0 0 1 29.87 2C32.69 2 34 3.67 34 7.25c0 3.28-1.16 5.26-1.9 8.08-.32 1.22-.79 3.7-1.46 7.07a2 2 0 0 1-2 1.6H19.32c-2.86 0-1.67-3.66-4.17-11.07C13.49 8 13 2 18.13 2z"></path></svg>