<svg xmlns="http://www.w3.org/2000/svg" viewBox="0 0 48 48" id="milk-tooth"><g data-name="milk tooth"><path fill="#db5669" d="M47,24V38H1V24a7.25,7.25,0,0,1,4.38-3.69c23.58-.42,16.37-.43,37.38.05A7.2,7.2,0,0,1,47,24Z"></path><path fill="#f26674" d="M47,24V36H6a3,3,0,0,1-3-3c0-12-.19-10.82.46-11.78a7.06,7.06,0,0,1,1.92-.91c2.64,0,35.83-.89,38.52.53A7.23,7.23,0,0,1,47,24Z"></path><path fill="#dad7e5" d="M17.87,31.11A1.35,1.35,0,0,0,20.44,31c.59-2.6.46-6.1.89-7.74C22,20.73,24,18.84,24,15.68,24,14.42,24,10,19.33,10a10.36,10.36,0,0,0-3.52.51c-2.65,1-3.5-.51-7.14-.51C4,10,4,14.42,4,15.68c0,3.16,2,5.05,2.67,7.58C7.1,24.9,7,28.4,7.56,31a1.35,1.35,0,0,0,2.57.11C12.56,23.5,15.23,22.86,17.87,31.11Z"></path><path fill="#edebf2" d="M24,15.68c0,3.16-2,5.05-2.67,7.58-.42,1.61-.3,5-.86,7.58a1.34,1.34,0,0,1-2.6.27c-2.44-7.64-5.08-8.13-7.65-.26A1.23,1.23,0,0,1,9.56,30c-.59-2.6-.46-6.1-.89-7.74C8,19.73,6,17.84,6,14.68c0-.86,0-3.17,1.47-4.57a10.48,10.48,0,0,1,4.72.4c2.64,1,3.48-.51,7.14-.51C24,10,24,14.42,24,15.68Z"></path><path fill="#dad7e5" d="M38.09,31.27a1.08,1.08,0,0,0,2.07-.09c.46-2.13.36-5,.71-6.33.53-2.07,2.13-3.62,2.13-6.2,0-1,0-4.65-3.73-4.65a8,8,0,0,0-2.82.42c-2.12.8-2.81-.42-5.72-.42C27,14,27,17.62,27,18.65c0,2.58,1.6,4.13,2.13,6.2.35,1.34.25,4.2.71,6.33a1.08,1.08,0,0,0,2.07.09C33.85,25.05,36,24.52,38.09,31.27Z"></path><path fill="#edebf2" d="M43,18.65c0,2.58-1.6,4.13-2.13,6.2-.31,1.2-.29,4.46-.71,6.33a1.08,1.08,0,0,1-2.07.09c-1.88-6-3.94-6.71-6-.59-.67-.72-.59-5.39-1-6.83C30.6,21.78,29,20.23,29,17.65a5.45,5.45,0,0,1,1-3.6c2.9-.4,4.09,1.24,6.41.37A8,8,0,0,1,39.27,14C43,14,43,17.62,43,18.65Z"></path></g></svg>