<svg xmlns="http://www.w3.org/2000/svg" viewBox="0 0 512 512" id="orthodontics"><g data-name="filled outline"><path fill="#fdc2c2" d="M492,272H441.269l-23.684,32.081H95.625L77.862,272H20A12,12,0,0,1,8,260V176a40,40,0,0,1,40-40H464a40,40,0,0,1,40,40v84A12,12,0,0,1,492,272Z"></path><path fill="#fffcf3" d="M240.141 376h-96.9A14.859 14.859 0 01128.4 360.467l4.752-104.525A58.6 58.6 0 01191.69 200h0a58.6 58.6 0 0158.543 55.942l4.751 104.525A14.858 14.858 0 01240.141 376zM368.76 376h-96.9a14.858 14.858 0 01-14.843-15.533l4.751-104.525A58.6 58.6 0 01320.31 200h0a58.6 58.6 0 0158.542 55.942L383.6 360.467A14.859 14.859 0 01368.76 376zM111.617 368H30.86a14.86 14.86 0 01-14.841-15.6l4.823-96.458A50.46 50.46 0 0171.239 208h0a50.46 50.46 0 0150.4 47.94l4.823 96.458A14.86 14.86 0 01111.617 368zM480.617 368H399.86a14.86 14.86 0 01-14.841-15.6l4.823-96.458a50.46 50.46 0 0150.4-47.94h0a50.46 50.46 0 0150.4 47.94l4.823 96.458A14.86 14.86 0 01480.617 368z"></path><rect width="48" height="48" x="168" y="280" fill="#85bdac" rx="12" ry="12"></rect><rect width="48" height="48" x="48" y="280" fill="#85bdac" rx="12" ry="12"></rect><rect width="48" height="48" x="296" y="280" fill="#85bdac" rx="12" ry="12"></rect><rect width="48" height="48" x="416" y="280" fill="#85bdac" rx="12" ry="12"></rect><path d="M464,132H48A44.049,44.049,0,0,0,4,176v84a16.015,16.015,0,0,0,11.862,15.438l-1.241,24.821a3.978,3.978,0,0,0-.367,7.324L12.023,352.2A18.862,18.862,0,0,0,30.86,372h80.757a18.679,18.679,0,0,0,13.487-5.692A18.854,18.854,0,0,0,143.24,380h96.9a18.687,18.687,0,0,0,13.634-5.83A19.115,19.115,0,0,0,256,371.341a19.115,19.115,0,0,0,2.225,2.829A18.687,18.687,0,0,0,271.859,380h96.9a18.829,18.829,0,0,0,18.015-13.31A18.659,18.659,0,0,0,399.86,372h80.757a18.862,18.862,0,0,0,18.837-19.8l-2.221-44.412a3.986,3.986,0,0,0-.384-7.692l-1.226-24.523A16.018,16.018,0,0,0,508,260V176A44.049,44.049,0,0,0,464,132ZM420,308h8v4a4,4,0,0,0,8,0v-4h8v4a4,4,0,0,0,8,0v-4h8v8a8.009,8.009,0,0,1-8,8H428a8.009,8.009,0,0,1-8-8Zm32-8v-4a4,4,0,0,0-8,0v4h-8v-4a4,4,0,0,0-8,0v4h-8v-8a8.009,8.009,0,0,1,8-8h24a8.009,8.009,0,0,1,8,8v8Zm0-24H428a16.019,16.019,0,0,0-16,16v8H391.644l2.193-43.86a46.46,46.46,0,0,1,92.8,0L488.834,300H468v-8A16.019,16.019,0,0,0,452,276ZM300,308h8v4a4,4,0,0,0,8,0v-4h8v4a4,4,0,0,0,8,0v-4h8v8a8.009,8.009,0,0,1-8,8H308a8.009,8.009,0,0,1-8-8Zm32-8v-4a4,4,0,0,0-8,0v4h-8v-4a4,4,0,0,0-8,0v4h-8v-8a8.009,8.009,0,0,1,8-8h24a8.009,8.009,0,0,1,8,8v8Zm0-24H308a16.019,16.019,0,0,0-16,16v8H263.768l2-43.876a54.6,54.6,0,0,1,109.093,0l2,43.876H348v-8A16.019,16.019,0,0,0,332,276ZM172,308h8v4a4,4,0,0,0,8,0v-4h8v4a4,4,0,0,0,8,0v-4h8v8a8.009,8.009,0,0,1-8,8H180a8.009,8.009,0,0,1-8-8Zm32-8v-4a4,4,0,0,0-8,0v4h-8v-4a4,4,0,0,0-8,0v4h-8v-8a8.009,8.009,0,0,1,8-8h24a8.009,8.009,0,0,1,8,8v8Zm0-24H180a16.019,16.019,0,0,0-16,16v8H135.149l2-43.876a54.6,54.6,0,0,1,109.093,0l2,43.876H220v-8A16.019,16.019,0,0,0,204,276ZM52,308h8v4a4,4,0,0,0,8,0v-4h8v4a4,4,0,0,0,8,0v-4h8v8a8.009,8.009,0,0,1-8,8H60a8.009,8.009,0,0,1-8-8Zm32-8v-4a4,4,0,0,0-8,0v4H68v-4a4,4,0,0,0-8,0v4H52v-8a8.009,8.009,0,0,1,8-8H84a8.009,8.009,0,0,1,8,8v8Zm0-24H60a16.019,16.019,0,0,0-16,16v8H22.644l2.193-43.86a46.46,46.46,0,0,1,92.8,0L119.834,300H100v-8A16.019,16.019,0,0,0,84,276Zm35.485,84.625A10.762,10.762,0,0,1,111.617,364H30.86a10.86,10.86,0,0,1-10.846-11.4l2.23-44.6H44v8a16.019,16.019,0,0,0,16,16H84a16.019,16.019,0,0,0,16-16v-8h20.234l2.23,44.6A10.759,10.759,0,0,1,119.485,360.625Zm128.507,8.018A10.764,10.764,0,0,1,240.141,372h-96.9a10.858,10.858,0,0,1-10.847-11.352L134.786,308H164v8a16.019,16.019,0,0,0,16,16h24a16.019,16.019,0,0,0,16-16v-8h28.6l2.393,52.648A10.76,10.76,0,0,1,247.992,368.643Zm128.619,0A10.764,10.764,0,0,1,368.76,372h-96.9a10.858,10.858,0,0,1-10.847-11.352L263.4,308H292v8a16.019,16.019,0,0,0,16,16h24a16.019,16.019,0,0,0,16-16v-8h29.214l2.393,52.648A10.76,10.76,0,0,1,376.611,368.643Zm111.874-8.018A10.762,10.762,0,0,1,480.617,364H399.86a10.86,10.86,0,0,1-10.846-11.4l2.23-44.6H412v8a16.019,16.019,0,0,0,16,16h24a16.019,16.019,0,0,0,16-16v-8h21.234l2.23,44.6A10.759,10.759,0,0,1,488.485,360.625ZM500,260a8.01,8.01,0,0,1-4.79,7.323l-.579-11.583a54.46,54.46,0,0,0-108.784,0l-1.571,31.417-1.427-31.4a62.6,62.6,0,0,0-125.078,0L256,294.713l-1.771-38.952a62.6,62.6,0,0,0-125.078,0l-1.675,36.87-1.845-36.891a54.46,54.46,0,0,0-108.784,0l-.567,11.336A8,8,0,0,1,12,260V176a36.04,36.04,0,0,1,36-36H464a36.04,36.04,0,0,1,36,36Z"></path></g></svg>