<svg xmlns="http://www.w3.org/2000/svg" viewBox="0 0 48 48" id="tooth-decayed"><path fill="#dad7e5" d="M32.12,45.14a2.84,2.84,0,0,0,5.41-.24c1.23-5.43,1-12.75,1.87-16.18,1.4-5.28,5.6-9.24,5.6-15.84C45,10.24,45,1,35.2,1a21.62,21.62,0,0,0-7.39,1.07,11.09,11.09,0,0,1-7.62,0A21.62,21.62,0,0,0,12.8,1C3,1,3,10.24,3,12.88c0,6.6,4.2,10.56,5.6,15.84.91,3.43.64,10.75,1.87,16.18a2.84,2.84,0,0,0,5.41.24C21,29.24,26.58,27.88,32.12,45.14Z"></path><path fill="#edebf2" d="M45,12.88c0,6.6-4.2,10.56-5.6,15.84-.91,3.43-.64,10.75-1.87,16.18a2.84,2.84,0,0,1-5.41.24c-8.94-27.91-15.77-.32-16.69.85a2.75,2.75,0,0,1-3-2.09c-1.23-5.43-1-12.75-1.87-16.18C9.2,22.44,5,18.48,5,11.88c0-2,0-7.53,4-10.29,3-1,8.27-.6,11.21.48a11.09,11.09,0,0,0,7.62,0A21.62,21.62,0,0,1,35.2,1C45,1,45,10.24,45,12.88Z"></path><path fill="#fc6" d="M23,8c-5-2-4,2-8,1-2.91-.73-3,2-7,2C6,11,4.5,9.5,3.5,8A8.53,8.53,0,0,1,9,1.59C11.84.52,17.33,1,20.19,2.07c4.82,1.78,7.7-.49,11.43-.86a14,14,0,0,1,1.27,3.63C33.89,10.61,27.1,9.64,23,8Z"></path><path fill="#ffde76" d="M32.89,4.84C32.08,8.32,26.54,7.41,23,6c-5-2-4,2-8,1-2.91-.73-3,2-7,2A4.26,4.26,0,0,1,5.3,8,9.56,9.56,0,0,1,9,1.59C11.83.52,17.32,1,20.19,2.07c5,1.83,7.51-.47,11.43-.86A14,14,0,0,1,32.89,4.84Z"></path><path fill="#ffba55" d="M9 8A1 1 0 0 1 8 7 1 1 0 1 1 9 8zM11.29 3.29a1 1 0 0 1 1.42 1.42A1 1 0 0 1 11.29 3.29zM17 6a1 1 0 0 1-.92-1.38 1 1 0 0 1 1.63-.33A1 1 0 0 1 17 6zM28 7a1 1 0 1 1 1-1A1 1 0 0 1 28 7z"></path><path fill="#fc6" d="M22,24c-3-1-3,3-7,2-3.18-.79-4-4.72-4-8,0-4,3.84-1.46,6-2,4-1,7,2,9,4S25,25,22,24Z"></path><path fill="#ffde76" d="M26.64,21.34A3.84,3.84,0,0,1,23,22c-3-1-3,3-7,2-3.24-.81-4-4.81-4-8.15,1.29-.54,3.53.52,5,.15,4-1,7,2,9,4A2,2,0,0,1,26.64,21.34Z"></path><path fill="#ffba55" d="M15 20a1 1 0 1 1 .92-1.38A1 1 0 0 1 15 20zM16.29 21.29a1 1 0 0 1 1.42 1.42A1 1 0 0 1 16.29 21.29zM20 21a1 1 0 1 1 .71-1.71A1 1 0 0 1 20 21z"></path><path fill="#fc6" d="M39.4,28.72a38.42,38.42,0,0,0-.74,6.07C37.21,33.92,35.53,32.6,35,31c-1-3,2-4-1-9-1.15-1.92-1-7,4-9a12.29,12.29,0,0,1,7-.64C45.34,19,40.82,23.38,39.4,28.72Z"></path><path fill="#ffde76" d="M39.4,28.72a23.79,23.79,0,0,0-.56,3.77A5.94,5.94,0,0,1,37,30c-1-3,2-4-1-9a6.55,6.55,0,0,1,2.41-8.15A12.15,12.15,0,0,1,45,12.36C45.34,19,40.82,23.38,39.4,28.72Z"></path><path fill="#ffba55" d="M41 17a1 1 0 0 1 0-2A1 1 0 1 1 41 17zM40 21a1 1 0 0 1 0-2A1 1 0 1 1 40 21zM37 19a1 1 0 0 1 0-2A1 1 0 1 1 37 19zM38 24a1 1 0 0 1 0-2A1 1 0 1 1 38 24z"></path></svg>