<svg xmlns="http://www.w3.org/2000/svg" width="512" height="512" id="teeth"><g fill="none" fill-rule="evenodd"><path fill="#FEFEFE" d="M325.238 20.941 277.22 42.455a52.217 52.217 0 0 1-42.68 0L186.522 20.94C140.58.354 85.538 15.948 59.398 58.854c-20.246 33.24-28.107 77.59-16.616 121.491l73.464 280.698c5.963 22.79 23.387 38.27 43.069 38.27 18.842 0 35.717-14.218 42.321-35.671l38.288-124.326c4.827-15.67 27.085-15.67 31.912 0l38.288 124.326c6.603 21.453 23.471 35.671 42.321 35.671 19.682 0 37.106-15.48 43.069-38.27l73.464-280.698c11.491-43.901 3.63-88.251-16.616-121.49-26.14-42.907-81.181-58.5-127.124-37.914"></path><path fill="#2E2E30" d="M255.88 316.164c12.628 0 23.19 7.774 26.887 19.804L321.055 460.3c5.086 16.521 17.706 27.616 31.394 27.616 14.48 0 27.337-11.961 31.997-29.751l73.463-280.698c10.188-38.916 4.606-79.99-15.327-112.698-22.9-37.58-71.32-51.95-112.651-33.43l-48.018 21.514a63.729 63.729 0 0 1-52.066 0L181.829 31.34c-41.338-18.52-89.76-4.142-112.651 33.43-19.933 32.707-25.515 73.782-15.327 112.698l73.463 280.698c4.66 17.79 17.516 29.751 31.997 29.751 13.688 0 26.308-11.095 31.394-27.616l38.288-124.333c3.698-12.03 14.26-19.804 26.887-19.804m96.569 194.551c-23.807 0-45.211-17.577-53.256-43.719l-38.288-124.333c-.999-3.222-3.576-3.701-5.025-3.701-1.449 0-4.026.479-5.025 3.7l-38.288 124.334c-8.045 26.142-29.45 43.72-53.256 43.72-25.05 0-46.813-18.81-54.133-46.798L31.72 183.221c-11.75-44.852-5.215-92.34 17.897-130.284 28.878-47.397 89.76-65.62 141.598-42.396l48.01 21.521a40.771 40.771 0 0 0 33.308 0l48.01-21.521c51.846-23.24 112.712-5 141.598 42.396 23.112 37.944 29.647 85.432 17.897 130.284l-73.457 280.697c-7.32 27.989-29.083 46.797-54.133 46.797"></path><path fill="#040605" d="M255.88 321.11c-4.827-15.669-49.748-6.003-61.705 18.209l-38.288 124.325c-3.713 12.053-10.729 21.689-19.452 27.936 6.794 4.863 14.603 7.728 22.876 7.728 18.85 0 35.718-14.21 42.33-35.664l31.363-101.854 22.876-40.68zM452.36 58.857C429.775 21.78 385.616 5.16 344.392 14.59c25.203 5.745 47.995 20.929 62.217 44.266 20.245 33.232 28.107 77.59 16.616 121.491L349.76 461.045c-3.455 13.207-10.828 23.824-20.192 30.534 6.81 4.871 14.618 7.728 22.876 7.728 19.681 0 37.106-15.472 43.069-38.262l73.464-280.698c11.491-43.901 3.63-88.259-16.616-121.49" opacity=".15"></path><path fill="#FEFEFE" d="M234.54 42.456s31.546 17.896 82.18 35.793"></path><path fill="#2E2E30" d="M316.72 89.657c-1.266 0-2.562-.213-3.828-.661-50.992-18.026-82.69-35.884-84.018-36.63-5.482-3.115-7.396-10.068-4.278-15.54 3.12-5.464 10.112-7.379 15.595-4.278.312.174 31.417 17.66 80.357 34.964 5.948 2.105 9.059 8.618 6.954 14.553-1.67 4.674-6.077 7.592-10.782 7.592"></path></g></svg>