<svg xmlns="http://www.w3.org/2000/svg" enable-background="new 0 0 512 512" viewBox="0 0 512 512" id="bangladesh"><path fill="#01674D" d="M329.579,18.382H182.438c-90.46,0-164.056,73.587-164.056,164.038v147.159
		c0,90.452,73.596,164.039,164.056,164.039h147.142c90.452,0,164.039-73.587,164.039-164.039V182.42
		C493.618,91.969,420.031,18.382,329.579,18.382z"></path><path fill="#FFF" d="M18.423,329.504V182.495c0-90.567,73.505-164.072,164.072-164.072h56.946
		C194.83,27.383,74.354,62.019,56.104,172.867l-0.842,180.796c0,0,4.39,73.678,37.004,112.877
		C47.828,437.143,18.423,386.789,18.423,329.504z" opacity=".22"></path><path fill="#160204" d="M493.577,182.495v147.009c0,90.567-73.505,164.072-164.072,164.072h-147.01
		c-19.266,0-37.681-3.383-54.916-9.463l148.19-12.673c153.09-21.122,159.006-124.535,159.006-124.535l-0.677-179.616
		c0,0-3.209-105.608-130.45-148.866h25.857C420.072,18.423,493.577,91.928,493.577,182.495z" opacity=".13"></path><ellipse cx="255.999" cy="256.001" fill="#ED293F" rx="119.706" ry="119.728"></ellipse></svg>